<?xml version="1.0" standalone="no"?>
<!DOCTYPE svg PUBLIC "-//W3C//DTD SVG 1.1//EN" "http://www.w3.org/Graphics/SVG/1.1/DTD/svg11.dtd" >
<!--
2013-9-30: Created.
-->
<svg>
<metadata>
Created by iconfont
</metadata>
<defs>

<font id="iconfont" horiz-adv-x="1024" >
  <font-face
    font-family="iconfont"
    font-weight="500"
    font-stretch="normal"
    units-per-em="1024"
    ascent="896"
    descent="-128"
  />
    <missing-glyph />
    
    <glyph glyph-name="x" unicode="x" horiz-adv-x="1001"
d="M281 543q-27 -1 -53 -1h-83q-18 0 -36.5 -6t-32.5 -18.5t-23 -32t-9 -45.5v-76h912v41q0 16 -0.5 30t-0.5 18q0 13 -5 29t-17 29.5t-31.5 22.5t-49.5 9h-133v-97h-438v97zM955 310v-52q0 -23 0.5 -52t0.5 -58t-10.5 -47.5t-26 -30t-33 -16t-31.5 -4.5q-14 -1 -29.5 -0.5
t-29.5 0.5h-32l-45 128h-439l-44 -128h-29h-34q-20 0 -45 1q-25 0 -41 9.5t-25.5 23t-13.5 29.5t-4 30v167h911zM163 247q-12 0 -21 -8.5t-9 -21.5t9 -21.5t21 -8.5q13 0 22 8.5t9 21.5t-9 21.5t-22 8.5zM316 123q-8 -26 -14 -48q-5 -19 -10.5 -37t-7.5 -25t-3 -15t1 -14.5
t9.5 -10.5t21.5 -4h37h67h81h80h64h36q23 0 34 12t2 38q-5 13 -9.5 30.5t-9.5 34.5q-5 19 -11 39h-368zM336 498v228q0 11 2.5 23t10 21.5t20.5 15.5t34 6h188q31 0 51.5 -14.5t20.5 -52.5v-227h-327z" />
    

    
    <glyph glyph-name="shezhi" unicode="&#58910;" d="M511.954973 155.236965c-81.989711 0-148.687515 66.695005-148.687515 148.681274s66.697804 148.681274 148.687515 148.681274 148.687515-66.695005 148.687515-148.681274S593.944683 155.236965 511.954973 155.236965zM511.954973 385.642542c-45.06932 0-81.727733-36.656875-81.727733-81.724303s36.658413-81.724303 81.727733-81.724303 81.727733 36.656875 81.727733 81.724303S557.024293 385.642542 511.954973 385.642542zM461.976647-50.069981c-12.856335 0-24.586987 7.363711-30.17038 18.962887l-30.995199 64.401776c-13.641244 5.472642-26.880312 11.970636-39.565748 19.404955l-66.747948-15.934924c-12.635292-3.027963-25.864126 1.539053-33.952678 11.689227l-62.413041 78.263481c-8.098785 10.150174-9.586735 24.063045-3.842676 35.701107l31.659353 64.079434c-3.762855 13.027711-6.639489 26.275433-8.591016 39.644929l-54.15359 42.119283c-10.250888 7.967462-14.969551 21.145599-12.102127 33.810037l22.081828 97.638761c2.867424 12.665461 12.786748 22.523993 25.46195 25.310456l69.87735 15.371082c7.615764 10.783601 15.935593 21.054525 24.888875 30.721699l-1.197319 68.656683c-0.221043 12.986779 7.082599 24.927739 18.731383 30.641881l89.876662 44.080961c11.689717 5.724375 25.582705 4.175089 35.693395-3.943822l55.782762-44.734854c14.284931 0.935302 27.856587 0.864694 42.28274-0.301875l53.106704 43.518143c10.029845 8.219195 23.9433 9.908674 35.643251 4.315282l90.328983-43.135426c11.720418-5.593392 19.143793-17.453511 19.053738-30.430056l-0.483021-71.503521c8.761915-9.717316 16.890378-20.018939 24.314776-30.80254l67.180825-13.932314c12.716137-2.636037 22.756215-12.393261 25.763838-25.01779l23.218769-97.367585c3.017857-12.624529-1.549351-25.852808-11.699951-33.94102l-55.893284-44.553729c-2.011904-12.745279-4.869095-25.370831-8.530639-37.764092l31.48743-60.930721c5.955892-11.538801 4.708429-25.471115-3.198989-35.762505l-60.974212-79.380932c-7.917652-10.3006-21.025732-15.150048-33.740845-12.30321l-69.84665 15.350616c-12.595381-7.293103-25.723928-13.661138-39.25465-19.023262l-28.529951-62.389956c-5.40226-11.809977-17.142122-19.425422-30.129446-19.556405l-100.097874-0.976234C462.19769-50.069981 462.087169-50.069981 461.976647-50.069981zM367.030313 121.979514c6.46859 0 12.856335-1.870604 18.359907-5.482875 15.804604-10.360975 32.876115-18.761296 50.722301-24.948205 8.420117-2.917446 15.331817-9.073656 19.20417-17.111726l27.604843-57.350173 57.553156 0.563842 25.472184 55.709813c3.832443 8.379854 10.954953 14.808264 19.677981 17.774829 17.776598 6.03546 34.787731 14.264888 50.561635 24.454972 7.505243 4.848425 16.61919 6.468318 25.351428 4.567016l62.221675-13.671371 35.058919 45.64048-28.117541 54.402027c-4.225409 8.188496-4.898772 17.755386-1.851239 26.446325 5.804436 16.547885 9.69828 33.730219 11.579196 51.082422 0.966042 8.882298 5.442171 17.001209 12.424482 22.563902l49.786959 39.695071-13.34959 55.982012-59.978494 12.434194c-9.013659 1.870604-16.860701 7.373944-21.699095 15.210423-9.265403 15.029298-20.2705 29.001521-32.715449 41.525766-6.277224 6.327102-9.778101 14.898315-9.717724 23.811312l0.432877 63.677275-51.940086 24.806989-47.433256-38.870286c-7.112277-5.824659-16.337769-8.44023-25.411806-7.323802-19.315715 2.444679-36.306381 2.555196-55.270064 0.443092-8.832527-0.966001-17.71622 1.589195-24.657598 7.15291l-49.686671 39.84652-51.678109-25.350364 1.06633-61.303204c0.150432-9.214872-3.490644-18.076704-10.069756-24.52558-12.655759-12.373819-23.9126-26.245757-33.44919-41.234123-4.788251-7.514137-12.364104-12.805654-21.055409-14.71719l-62.221675-13.681604-12.705903-56.142671 48.368598-37.622876c7.283176-5.664 11.910761-14.083763 12.776514-23.267936 1.690573-17.825994 5.512782-35.521005 11.358152-52.591799 2.886868-8.44023 2.284115-17.674545-1.659872-25.671683l-28.198386-57.06774 35.893971-45.007053 59.616228 14.234189C361.818396 121.677639 364.434076 121.979514 367.030313 121.979514z"  horiz-adv-x="1024" />

    
    <glyph glyph-name="sousuo" unicode="&#58936;" d="M1015.111051-125.596118 723.051275 168.387473c118.749568 156.845211 106.645902 381.213281-36.368302 524.226462-156.304905 156.304905-409.726685 156.304905-566.031591 0-156.304905-156.26909-156.304905-409.691893 0-565.996798 142.963039-142.963039 367.155101-155.137313 523.988032-36.58115l292.124244-294.01429c9.598612-9.597589 25.205055-9.597589 34.801621 0l43.546795 43.546795C1024.743432-150.799126 1024.743432-135.19473 1015.111051-125.596118zM194.804243 198.602635c-114.784256 114.783233-114.784256 300.878628 0 415.627069 114.78528 114.784256 300.841789 114.784256 415.628092 0 114.78528-114.748441 114.78528-300.843836 0-415.627069C495.646032 83.817356 309.589522 83.817356 194.804243 198.602635z"  horiz-adv-x="1024" />

    
    <glyph glyph-name="fullscreen-exit" unicode="&#59052;" d="M706.342 123.84h156.238c5.923-0.132 11.888 2.019 16.408 6.539 8.784 8.784 8.782 23.026 0 31.808-4.469 4.469-10.349 6.637-16.204 6.558l-0.001 0.078-210.741-0.001c-0.085 0-0.165-0.024-0.249-0.026-0.445-0.003-0.882-0.103-1.326-0.133-1.846-0.13-3.614-0.48-5.31-1.028-0.586-0.187-1.189-0.31-1.762-0.547-0.748-0.312-1.425-0.742-2.131-1.13-0.575-0.316-1.174-0.568-1.725-0.938-1.223-0.819-2.365-1.749-3.401-2.785-1.037-1.038-1.967-2.179-2.785-3.401-0.368-0.55-0.619-1.147-0.934-1.72-0.371-0.674-0.799-1.313-1.1-2.028-0.015-0.033-0.019-0.072-0.034-0.107-0.236-0.57-0.357-1.169-0.543-1.754-0.554-1.704-0.905-3.482-1.034-5.339-0.029-0.437-0.128-0.868-0.132-1.306-0.001-0.085-0.025-0.164-0.025-0.249l-0.001-208.007h0.030c0.003-5.753 2.198-11.504 6.586-15.892 8.784-8.784 23.024-8.784 31.808 0 4.466 4.467 6.636 10.342 6.56 16.195l-0.001 153.406 197.855-197.855c8.784-8.784 23.024-8.784 31.807 0 8.784 8.784 8.784 23.024 0 31.808l-197.854 197.855zM631.089 429.42c0.004-0.444 0.103-0.882 0.133-1.325 0.131-1.846 0.48-3.615 1.028-5.311 0.188-0.587 0.311-1.189 0.547-1.762 0.312-0.749 0.743-1.425 1.131-2.131 0.315-0.576 0.568-1.174 0.937-1.726 0.819-1.223 1.75-2.365 2.785-3.4 1.037-1.037 2.179-1.967 3.401-2.785 0.548-0.369 1.147-0.619 1.72-0.934 0.673-0.371 1.313-0.799 2.028-1.101 0.034-0.013 0.072-0.019 0.107-0.033 0.57-0.236 1.169-0.357 1.754-0.544 1.704-0.553 3.482-0.905 5.339-1.033 0.437-0.030 0.869-0.129 1.307-0.132 0.085-0.001 0.164-0.026 0.249-0.026l208.007 0.029c5.753 0.003 11.505 2.197 15.893 6.586 8.784 8.784 8.784 23.024 0 31.808-4.467 4.466-10.342 6.635-16.195 6.559l-153.407-0 197.854 197.855c8.784 8.784 8.784 23.024 0 31.807-8.783 8.784-23.023 8.784-31.807 0l-197.855-197.853 0.001 156.239c0.132 5.923-2.019 11.887-6.54 16.408-8.784 8.783-23.025 8.783-31.808 0-4.468-4.469-6.636-10.349-6.558-16.204h-0.078l0.001-210.743c-0-0.085 0.024-0.164 0.025-0.249zM395.935 146.587c-0.003 0.438-0.101 0.869-0.131 1.306-0.129 1.856-0.48 3.635-1.033 5.339-0.187 0.584-0.308 1.183-0.544 1.754-0.013 0.036-0.019 0.074-0.033 0.107-0.302 0.714-0.729 1.354-1.101 2.028-0.315 0.573-0.565 1.171-0.934 1.72-0.819 1.223-1.748 2.364-2.785 3.4-1.037 1.037-2.179 1.967-3.4 2.785-0.553 0.369-1.15 0.622-1.726 0.938-0.704 0.388-1.381 0.819-2.131 1.131-0.573 0.237-1.175 0.36-1.762 0.546-1.696 0.548-3.465 0.898-5.311 1.028-0.443 0.031-0.881 0.13-1.325 0.133-0.085 0.001-0.164 0.027-0.249 0.027l-210.743-0.077c-5.855 0.079-11.735-2.091-16.204-6.559-8.783-8.782-8.783-23.024 0-31.807 4.521-4.52 10.485-6.671 16.408-6.54l156.239 0.001-197.856-197.855c-8.783-8.784-8.783-23.024 0-31.808 8.784-8.783 23.024-8.783 31.808 0l197.855 197.856v-153.406c-0.076-5.853 2.093-11.729 6.559-16.195 8.784-8.784 23.024-8.784 31.808 0 4.389 4.389 6.584 10.14 6.586 15.893h0.030l-0.001 208.007c0.001 0.083-0.024 0.162-0.025 0.247zM316.144 450.653h-153.406c-5.853 0.076-11.729-2.094-16.195-6.56-8.783-8.784-8.784-23.024 0-31.807 4.389-4.389 10.14-6.584 15.894-6.587v-0.030l208.006 0.001c0.086 0 0.165 0.024 0.249 0.026 0.438 0.003 0.87 0.102 1.307 0.131 1.856 0.129 3.635 0.481 5.339 1.034 0.584 0.187 1.183 0.308 1.754 0.544 0.035 0.013 0.073 0.018 0.107 0.033 0.714 0.302 1.354 0.729 2.028 1.1 0.573 0.315 1.172 0.566 1.72 0.934 1.223 0.819 2.364 1.749 3.4 2.785 1.037 1.037 1.967 2.179 2.785 3.401 0.369 0.553 0.622 1.15 0.937 1.725 0.388 0.704 0.819 1.381 1.131 2.131 0.236 0.573 0.359 1.175 0.547 1.762 0.548 1.696 0.898 3.465 1.028 5.311 0.031 0.443 0.129 0.881 0.133 1.325 0.001 0.085 0.026 0.164 0.026 0.249l0.001 210.742-0.077 0.001c0.078 5.855-2.092 11.735-6.559 16.203-8.783 8.783-23.024 8.784-31.807 0-4.521-4.521-6.672-10.485-6.54-16.408l0.001-156.239-197.856 197.855c-8.784 8.784-23.024 8.784-31.807 0-8.783-8.784-8.784-23.024 0-31.808l197.853-197.853z"  horiz-adv-x="1024" />

    
    <glyph glyph-name="shangcheng" unicode="&#59179;" d="M1011.964343 559.637943c-0.285257 0.6784-0.213943 1.3568-0.356571 2.0352L878.392686 828.101486c-9.000229 17.499429-27.249371 29.500343-48.321829 29.500343L193.607314 857.601829c-20.821943 0-38.857143-11.785143-47.928686-28.964571L10.644114 558.601143c-5.500343-12.500114-9.749943-26.143086-9.749943-40.714971 0-5.7856 1.000229-11.357257 2.177829-16.8576 11.214629-52.2496 53.463771-92.999314 106.536229-101.999543l0-455.714743c0-20.214857 16.356571-36.571429 36.571429-36.571429l731.428571 0c20.214857 0 36.571429 16.356571 36.571429 36.571429L914.179657 399.030857c54.070857 9.179429 97.106286 51.214629 107.357257 104.8576 0.213943 1.214171 0.285257 2.499657 0.464457 3.713829 0.643657 4.072229 0.8576 8.285257 1.142857 12.500114C1022.608457 534.423771 1017.393371 547.280457 1011.964343 559.637943zM841.0368-20.112457l-658.285714 0L182.751086 407.173486c16.749714 7.107657 31.535543 17.749943 43.893029 30.714514 8.572343-9.000229 18.464914-16.464457 29.249829-22.749257l0-288.963657c0-20.214857 16.356571-36.571429 36.571429-36.571429l438.857143 0c20.214857 0 36.571429 16.356571 36.571429 36.571429L767.893943 415.136914c10.784914 6.286629 20.679314 13.750857 29.249829 22.749257 12.357486-12.964571 27.143314-23.606857 43.893029-30.714514L841.0368-20.112457zM329.0368 162.744686 329.0368 397.566171c34.464914 1.929143 65.393371 16.821029 87.786057 40.321829 24-25.179429 57.642057-41.071543 95.071086-41.071543s71.071086 15.892114 95.071086 41.071543c22.392686-23.5008 53.321143-38.392686 87.786057-40.321829l0-234.821486L329.0368 162.744686zM892.2496 469.959314c-29.822171 0-54.213486 22.500571-57.821257 51.357257 0-0.071314 0-0.285257 0-0.250514-2.428343 18.249143-18.177829 32.427886-37.1072 32.427886-18.499657 0-33.892571-13.463771-36.856686-31.107657-0.036571-0.285257-0.071314 1.142857-0.142629 3.713829-1.250743-31.1424-26.784914-56.142629-58.249143-56.142629-30.965029 0-56.142629 24.250514-58.143086 54.714514-0.036571-1.786514-0.036571-2.929371-0.071314-2.750171-2.428343 18.249143-18.177829 32.427886-37.1072 32.427886-18.499657 0-33.892571-13.463771-36.856686-31.107657 0-0.036571 0 0.142629 0 0.142629-2.642286-29.856914-27.499886-53.429029-58.000457-53.429029-30.142171 0-54.749257 22.999771-57.857829 52.357486-2.642286 18.0352-18.2144 32.036571-36.999314 32.036571-18.499657 0-33.892571-13.463771-36.856686-31.107657-0.036571-0.250514-0.071314 1.000229-0.142629 3.285943-1.000229-31.3216-26.678857-56.572343-58.322286-56.572343-30.036114 0-54.606629 22.893714-57.857829 52.072229 0 0 0-0.142629 0-0.107886-2.428343 18.249143-18.177829 32.427886-37.1072 32.427886-18.499657 0-33.892571-13.463771-36.856686-31.107657-0.036571-0.213943-0.071314 0.821029-0.107886 2.428343-1.464686-30.928457-26.929371-55.714743-58.249143-55.714743-29.7856 0-54.178743 22.500571-57.786514 51.320686l131.607771 263.178971 613.070629 0 131.607771-263.178971C946.428343 492.458057 922.037029 469.959314 892.2496 469.959314z"  horiz-adv-x="1024" />

    
    <glyph glyph-name="duankai" unicode="&#58881;" d="M686.593945 673.704261c57.105602 57.105602 146.787134 60.341297 199.917192 7.212262 53.130058-53.130058 49.894364-142.812613-7.213285-199.919239L718.829114 320.528546l56.423057-56.423057 160.469762 160.468738c88.358397 88.35942 91.588975 228.388641 7.212262 312.765353-84.375689 84.375689-224.404909 81.146135-312.76433-7.212262L469.701127 569.657556l56.422034-56.423057L686.593945 673.704261zM338.893942-59.40765c-57.106626-57.106626-146.789181-60.341297-199.918215-7.213285-53.129035 53.131081-49.89334 142.813636 7.212262 199.920262l157.716045 157.716045-56.423057 56.423057L89.764931 189.722384c-88.35942-88.360444-91.587951-228.389664-7.212262-312.765353 84.375689-84.375689 224.404909-81.147158 312.76433 7.212262L553.033044 41.887384l-56.42408 56.423057L338.893942-59.40765zM214.148823 385.833901C214.1478 385.833901 214.149846 385.833901 214.148823 385.833901l-178.452321 0c-19.137873 0-34.652218 15.515369-34.652218 34.653241 0 19.136849 15.516392 34.652218 34.652218 34.652218 0.001023 0-0.001023 0 0 0l178.452321-0.001023c19.137873 0 34.652218-15.514345 34.652218-34.653241C248.801041 401.349269 233.285672 385.833901 214.148823 385.833901zM265.233292 509.165834c-8.868995 0-17.735943 3.382027-24.503067 10.149151L114.545314 645.499895c-13.532201 13.533224-13.532201 35.473933 0 49.007157 13.532201 13.532201 35.472909 13.532201 49.006134 0l126.184911-126.184911c13.532201-13.533224 13.532201-35.473933 0-49.007157C282.971281 512.548884 274.101263 509.165834 265.233292 509.165834zM388.565225 560.251326c-19.137873 0-34.653241 15.515369-34.653241 34.652218L353.911984 773.356888c0 19.137873 15.515369 34.652218 34.653241 34.652218s34.652218-15.515369 34.652218-34.652218l0-178.453345C423.217443 575.765671 407.703097 560.251326 388.565225 560.251326zM628.48141-206.948961c-19.137873 0-34.653241 15.514345-34.653241 34.653241L593.828169 6.154555c0 19.137873 15.515369 34.652218 34.653241 34.652218 19.136849 0 34.651194-15.514345 34.651194-34.652218l0-178.450275C663.132604-191.434615 647.618259-206.948961 628.48141-206.948961zM877.99723-103.597081c-8.868995 0-17.73799 3.38305-24.503067 10.150174L727.309252 32.73698c-13.533224 13.532201-13.533224 35.472909 0 49.006134 13.532201 13.534248 35.474956 13.534248 49.006134 0l126.184911-126.184911c13.533224-13.533224 13.533224-35.472909 0-49.006134C895.734196-100.215054 886.865201-103.597081 877.99723-103.597081zM981.349109 145.919762 802.897811 145.919762c-19.137873 0-34.652218 15.514345-34.652218 34.651194 0 19.137873 15.514345 34.653241 34.652218 34.653241l178.451298 0c19.138896 0 34.653241-15.515369 34.653241-34.653241C1016.00235 161.434108 1000.488005 145.919762 981.349109 145.919762z"  horiz-adv-x="1024" />

    
    <glyph glyph-name="fanganjieshao" unicode="&#58987;" d="M888.170667 790.666667 348.437333 790.666667c-72.149333 0-130.837333-58.666667-130.837333-130.837333l0-556.074667-49.066667 0C87.36 103.754667 21.333333 37.664 21.333333-43.466667 21.333333-124.576 87.36-190.666667 168.512-190.666667L659.2-190.666667c81.152 0 147.178667 66.090667 147.178667 147.2L806.378667 659.829333l179.925333 0C995.306667 659.829333 1002.666667 667.168 1002.666667 676.149333 1002.666667 739.296 951.296 790.666667 888.170667 790.666667zM168.512-157.92c-63.146667 0-114.496 51.328-114.496 114.453333 0 63.125333 51.349333 114.517333 114.496 114.517333l398.250667 0C533.333333 44.021333 511.978667 2.741333 511.978667-43.466667c0-46.165333 21.376-87.488 54.784-114.453333L168.512-157.92zM773.696 676.149333 773.696-43.466667c0-63.125333-51.370667-114.453333-114.496-114.453333-63.168 0-114.496 51.328-114.496 114.453333 0 63.125333 51.328 114.517333 114.496 114.517333 9.024 0 16.341333 7.338667 16.341333 16.32 0 9.045333-7.338667 16.362667-16.341333 16.362667L250.304 103.733333 250.304 659.829333c0 54.101333 44.010667 98.133333 98.112 98.133333l459.84 0C787.008 737.12 773.696 708.256 773.696 676.149333zM808.021333 692.533333c7.594667 37.312 40.682667 65.429333 80.149333 65.429333 39.488 0 72.554667-28.138667 80.149333-65.429333L808.021333 692.533333zM659.2-196 168.512-196c-84.096 0-152.512 68.437333-152.512 152.533333s68.416 152.533333 152.512 152.533333l43.733333 0L212.245333 659.829333c0 75.093333 61.077333 136.170667 136.170667 136.170667l539.754667 0c66.069333 0 119.808-53.76 119.808-119.850667 0-11.946667-9.728-21.653333-21.696-21.653333L811.733333 654.496 811.733333-43.466667C811.733333-127.562667 743.317333-196 659.2-196zM168.512 98.421333c-78.229333 0-141.845333-63.637333-141.845333-141.866667s63.637333-141.866667 141.845333-141.866667L659.2-185.312c78.208 0 141.845333 63.637333 141.845333 141.866667L801.045333 665.162667l185.258667 0c6.08 0 11.029333 4.928 11.029333 10.986667 0 60.202667-48.96 109.184-109.141333 109.184L348.437333 785.333333c-69.205333 0-125.504-56.298667-125.504-125.504l0-561.408L168.512 98.421333zM659.2-163.253333c-66.090667 0-119.829333 53.738667-119.829333 119.786667 0 66.090667 53.76 119.829333 119.829333 119.829333 6.058667 0 11.008 4.928 11.008 11.008 0 6.08-4.928 11.050667-11.008 11.050667L244.970667 98.421333 244.970667 659.829333c0 57.045333 46.4 103.466667 103.445333 103.466667L821.333333 763.296l-9.344-9.130667c-21.269333-20.864-32.981333-48.576-32.981333-78.016L779.008-43.466667C779.029333-109.514667 725.269333-163.253333 659.2-163.253333zM255.637333 109.088 659.2 109.088c11.946667 0 21.674667-9.728 21.674667-21.717333 0-11.946667-9.728-21.674667-21.674667-21.674667-60.181333 0-109.162667-48.981333-109.162667-109.162667 0-60.16 48.981333-109.12 109.162667-109.12s109.141333 48.96 109.141333 109.12L768.341333 676.149333c0 28.181333 9.770667 54.933333 27.754667 76.48L348.437333 752.629333c-51.157333 0-92.778667-41.642667-92.778667-92.8L255.658667 109.088zM581.866667-163.253333 168.512-163.253333c-66.069333 0-119.829333 53.738667-119.829333 119.786667 0 66.090667 53.76 119.829333 119.829333 119.829333l413.333333 0-11.733333-9.472c-33.557333-27.114667-52.8-67.328-52.8-110.357333s19.242667-83.2 52.8-110.314667L581.866667-163.253333zM168.512 65.717333c-60.181333 0-109.162667-48.981333-109.162667-109.162667 0-60.16 48.96-109.12 109.162667-109.12l384.213333 0c-29.44 28.629333-46.08 67.669333-46.08 109.12 0 41.472 16.64 80.512 46.08 109.162667L168.512 65.717333zM974.848 687.2 801.493333 687.2l1.301333 6.4c8.213333 40.405333 44.117333 69.717333 85.397333 69.717333 41.237333 0 77.141333-29.312 85.376-69.717333L974.848 687.2zM814.826667 697.866667l146.688 0c-9.514667 32.106667-39.36 54.762667-73.344 54.762667C854.186667 752.629333 824.341333 729.973333 814.826667 697.866667zM642.858667 234.592 364.8 234.592c-9.045333 0-16.362667-7.338667-16.362667-16.362667 0-8.981333 7.338667-16.32 16.362667-16.32l278.058667 0c8.981333 0 16.341333 7.338667 16.341333 16.32C659.2 227.253333 651.84 234.592 642.858667 234.592zM642.858667 196.533333 364.8 196.533333c-11.968 0-21.717333 9.728-21.717333 21.674667 0 11.989333 9.749333 21.717333 21.717333 21.717333l278.058667 0c11.968 0 21.696-9.728 21.696-21.717333C664.533333 206.261333 654.805333 196.533333 642.858667 196.533333zM364.8 229.258667c-6.08 0-11.050667-4.949333-11.050667-11.050667 0-6.058667 4.949333-11.008 11.050667-11.008l278.058667 0c6.08 0 11.029333 4.928 11.029333 11.008 0 6.08-4.928 11.050667-11.029333 11.050667L364.8 229.258667zM642.858667 365.408 364.8 365.408c-9.045333 0-16.362667-7.338667-16.362667-16.32 0-9.045333 7.338667-16.362667 16.362667-16.362667l278.058667 0c8.981333 0 16.341333 7.338667 16.341333 16.362667C659.2 358.090667 651.84 365.408 642.858667 365.408zM642.858667 327.392 364.8 327.392c-11.968 0-21.717333 9.749333-21.717333 21.717333 0 11.946667 9.749333 21.653333 21.717333 21.653333l278.058667 0c11.968 0 21.696-9.728 21.696-21.653333C664.533333 337.12 654.805333 327.392 642.858667 327.392zM364.8 360.074667c-6.08 0-11.050667-4.928-11.050667-10.986667 0-6.08 4.949333-11.050667 11.050667-11.050667l278.058667 0c6.08 0 11.029333 4.949333 11.029333 11.050667 0 6.058667-4.928 10.986667-11.029333 10.986667L364.8 360.074667zM642.858667 496.245333 364.8 496.245333c-9.045333 0-16.362667-7.338667-16.362667-16.32 0-9.045333 7.338667-16.362667 16.362667-16.362667l278.058667 0c8.981333 0 16.341333 7.338667 16.341333 16.362667C659.2 488.928 651.84 496.245333 642.858667 496.245333zM642.858667 458.229333 364.8 458.229333c-11.968 0-21.717333 9.749333-21.717333 21.717333 0 11.946667 9.749333 21.653333 21.717333 21.653333l278.058667 0c11.968 0 21.696-9.728 21.696-21.653333C664.533333 467.957333 654.805333 458.229333 642.858667 458.229333zM364.8 490.912c-6.08 0-11.050667-4.928-11.050667-10.986667 0-6.08 4.949333-11.050667 11.050667-11.050667l278.058667 0c6.08 0 11.029333 4.949333 11.029333 11.050667 0 6.058667-4.928 10.986667-11.029333 10.986667L364.8 490.912zM642.858667 627.125333 364.8 627.125333c-9.045333 0-16.362667-7.381333-16.362667-16.362667 0-8.981333 7.338667-16.362667 16.362667-16.362667l278.058667 0c8.981333 0 16.341333 7.381333 16.341333 16.362667C659.2 619.744 651.84 627.125333 642.858667 627.125333zM642.858667 589.045333 364.8 589.045333c-11.968 0-21.717333 9.749333-21.717333 21.717333s9.749333 21.717333 21.717333 21.717333l278.058667 0c11.968 0 21.696-9.749333 21.696-21.717333S654.805333 589.045333 642.858667 589.045333zM364.8 621.792c-6.08 0-11.050667-4.949333-11.050667-11.050667s4.949333-11.050667 11.050667-11.050667l278.058667 0c6.08 0 11.029333 4.949333 11.029333 11.050667s-4.928 11.050667-11.029333 11.050667L364.8 621.792z"  horiz-adv-x="1024" />

    
    <glyph glyph-name="quanping" unicode="&#58884;" d="M1014.331575-201.87659C1009.09925-208.075757 1001.421383-212 991.98045-212L703.975118-212C686.287587-212 671.955568-197.667981 671.955568-179.98045 671.955568-162.292919 686.287587-148.017773 703.975118-148.017773L914.348681-148.984615 569.185893 196.178173 614.4 241.449153 959.9609-104.111747 959.9609 107.968009C959.9609 125.65554 974.292919 139.987559 991.98045 139.987559 1009.611108 139.987559 1023.943127 125.65554 1023.943127 107.968009L1024-179.07048C1024-188.056429 1020.246376-196.075535 1014.331575-201.87659ZM991.98045 459.955568C974.292919 459.955568 959.9609 474.287587 959.9609 491.975118L960.984615 702.348681 615.764954 357.185893 570.550847 402.456873 916.054874 747.9609 703.975118 747.9609C686.287587 747.9609 671.955568 762.292919 671.955568 779.98045 671.955568 797.667981 686.287587 812 703.975118 812L991.07048 812C999.999556 812 1008.075535 808.246376 1013.87659 802.331575 1020.018884 797.09925 1023.943127 789.478256 1023.943127 779.98045L1023.943127 491.975118C1023.943127 474.287587 1009.611108 459.955568 991.98045 459.955568ZM409.543127 358.550847 63.982227 704.111747 63.982227 491.975118C63.982227 474.287587 49.650208 459.955568 32.01955 459.955568 14.332019 459.955568 0 474.287587 0 491.975118L0 779.07048C0 787.999556 3.696751 796.075535 9.611552 801.87659 14.843877 808.075757 22.521744 812 32.01955 812L319.968009 812C337.65554 812 351.987559 797.667981 351.987559 779.98045 351.987559 762.292919 337.65554 747.9609 319.968009 747.9609L109.594446 748.984615 454.814107 403.764954 409.543127 358.550847ZM32.01955 139.987559C49.650208 139.987559 63.982227 125.65554 63.982227 107.968009L63.015385-102.405554 408.178173 242.814107 453.449153 197.543127 107.888253-148.017773 319.968009-148.017773C337.65554-148.017773 351.987559-162.349792 351.987559-179.98045 351.987559-197.667981 337.65554-212 319.968009-212L32.92952-212C23.943571-212 15.924465-208.303249 10.12341-202.388448 3.924243-197.09925 0-189.478256 0-179.98045L0 107.968009C0 125.65554 14.332019 139.987559 32.01955 139.987559Z"  horiz-adv-x="1024" />

    
    <glyph glyph-name="jiong" unicode="&#58904;" d="M511.225357 832.570365c-247.14789 0-447.562409-200.414519-447.562409-447.560362 0-247.211335 200.414519-447.564455 447.562409-447.564455 247.208265 0 447.564455 200.352097 447.564455 447.564455C958.788789 632.155846 758.433622 832.570365 511.225357 832.570365zM511.225357-31.319054c-229.963509 0-416.328034 186.366571-416.328034 416.328034 0 229.92974 186.366571 416.32701 416.328034 416.32701s416.328034-186.397271 416.328034-416.32701C927.555437 155.047518 741.186819-31.319054 511.225357-31.319054zM750.595097 474.663906 634.499985 590.759017c-6.412037 6.412037-16.806781 6.412037-23.218818 0-6.412037-6.415107-6.412037-16.806781 0-23.220864l116.095112-116.092042c6.412037-6.415107 16.806781-6.415107 23.216771 0C757.007133 457.859171 757.007133 468.253916 750.595097 474.663906zM412.169317 599.510332c-6.458085 6.458085-16.922415 6.458085-23.3805 0L271.888364 482.609879c-6.458085-6.458085-6.458085-16.925485 0-23.382547 6.455015-6.458085 16.922415-6.458085 23.3805 0l116.89943 116.903523C418.625356 582.583824 418.625356 593.055316 412.169317 599.510332zM604.263333 446.714344 410.43993 446.714344c-37.748742 0-68.411089-29.031197-68.411089-64.835657l0-151.384849c0-35.80753 30.627555-64.828494 68.411089-64.828494l193.823404 0c37.745672 0 68.411089 29.024034 68.411089 64.828494L672.674423 381.878686C672.672376 417.695427 642.044822 446.714344 604.263333 446.714344zM633.335463 230.493837c0-23.852244-3.903913-26.680663-29.074176-26.680663L410.43993 203.813175c-25.195845 0-29.077246 2.814092-29.077246 26.680663L381.362684 381.878686c0 23.849174 3.903913 26.683732 29.077246 26.683732l193.823404 0c25.195845 0 29.074176-2.814092 29.074176-26.683732l0-151.384849L633.335463 230.493837z"  horiz-adv-x="1024" />

    
    <glyph glyph-name="dengpao" unicode="&#58883;" d="M620.574323 242.56578l-51.723012 26.14445 73.395614 141.919267c90.340541 90.370217 90.340541 237.382479 0 327.750649-43.798529 43.798529-102.025675 67.904553-163.933653 67.904553l0 0c-61.904908 0-120.104425-24.107047-163.902954-67.904553-90.339518-90.36817-90.339518-237.380432 0-327.750649l3.312442-3.281743 69.686129-138.694829-51.77827-26.027793L270.075577 373.056764c-109.552092 113.230877-108.447944 294.476825 3.367701 406.29247 112.946398 113.003703 296.766984 113.003703 409.771711 0C795.030633 667.533588 796.135804 486.231359 686.553013 373.056764L620.574323 242.56578zM365.917412 141.051759 358.957907 198.570777 590.735737 226.665649 597.697289 169.119001ZM365.917412 54.131107 358.957907 111.652172 590.735737 139.747044 597.697289 82.200396ZM478.328621-62.889073c-47.929616 0-86.917582 38.988989-86.917582 86.917582l57.944713 0c0-15.957437 13.015432-28.972868 28.972868-28.972868 15.956414 0 28.971845 13.015432 28.971845 28.972868l57.944713 0C565.244156-23.900084 526.25619-62.889073 478.328621-62.889073zM449.354729 574.503798l-57.944713 0c0 95.858208 77.977979 173.83414 173.83414 173.83414l0-57.944713C501.357104 690.393225 449.354729 638.420527 449.354729 574.503798z"  horiz-adv-x="1024" />

    
    <glyph glyph-name="nongduyi" unicode="&#58931;" d="M588.825224 168.274774c0 0-21.032012-51.941999-73.114205 0-50.242288 48.649-73.079412 0-73.079412 0s-75.734892-124.118855-97.475032-170.2188c-6.090718-12.958126-29.741371-29.246091-24.39562-48.649l365.5393 0c22.13002 2.691295 3.471055 35.690874 0 48.649L588.825224 168.274774zM808.135092-1.943003 588.36576 316.877253l-0.035816 0.601704 0.49528 142.67242 48.756447 0c21.668509 12.905938 24.182772 43.709501 24.359804 72.955592 0.24764 42.930765-28.573779 72.974012-48.755424 72.974012l-219.274052 0c-20.181645 0-54.102199-29.280884-48.755424-72.974012 0.708128-5.895267-6.692423-57.765635 24.359804-72.955592l48.755424 0-0.212848-142.707213L223.32174-1.943003c-10.44591-38.876426 34.131355-111.24771 73.079412-121.657804l438.618713 0C774.002714-113.190713 829.238736-60.648033 808.135092-1.943003zM724.609771-74.597743l-416.878572 0.424672c-25.953092 6.940063-41.355897 33.637098-34.415834 59.554374l193.676048 328.841493L466.991412 508.781958l-48.719608 0c-6.727215 0-22.87294 0.177032-24.359804 24.325012-1.27504 20.394493 17.632589 24.325012 24.359804 24.325012l170.553421 0c6.727215 0 25.13854 0.76134 24.360827-24.325012-0.743944-25.244964-17.632589-24.325012-24.360827-24.325012l-48.719608 0 0-194.560184 218.921012-329.336774C766.001483-41.032276 750.599701-67.65768 724.609771-74.597743zM521.056772 717.115843c0-17.526165 14.516622-31.724539 32.431643-31.724539s32.432667 14.198374 32.432667 31.724539c0 17.526165-14.517645 31.724539-32.432667 31.724539S521.056772 734.643032 521.056772 717.115843zM553.489438 796.428214c26.874067 0 48.649 21.297049 48.649 47.586808s-21.774933 47.586808-48.649 47.586808-48.649-21.297049-48.649-47.586808S526.615371 796.428214 553.489438 796.428214zM423.723979 717.115843c17.916045 0 32.432667 14.198374 32.432667 31.724539 0 17.526165-14.516622 31.724539-32.432667 31.724539s-32.432667-14.198374-32.432667-31.724539C391.291312 731.314217 405.807934 717.115843 423.723979 717.115843z"  horiz-adv-x="1024" />

    
    <glyph glyph-name="quxiantu" unicode="&#59032;" d="M989.184 681.792c-127.04-6.336-124.032-253.12-154.752-341.504-39.744-114.176-138.496-211.712-271.424-172.288-113.28 33.472-187.712 252.288-325.76 169.28-94.592-56.896-142.016-181.248-164.992-284.864-0.256-1.024-0.704-1.92-0.896-2.816l0-106.944 882.56 0c19.456 0 35.328-15.808 35.328-35.328 0-19.456-15.808-35.328-35.328-35.328L36.096-128c-19.456 0-35.328 15.808-35.328 35.328L0.768 825.152c0 19.456 15.808 35.328 35.328 35.328 19.456 0 35.328-15.808 35.328-35.328l0-571.584C96.832 299.776 128.384 342.144 167.808 375.04c119.808 99.904 244.48 29.184 327.68-72.64 52.608-64.512 155.584-106.944 223.104-31.36 52.288 58.368 64.256 144.064 79.552 218.112 23.168 112.576 51.584 256.256 190.976 263.168C1034.688 754.624 1034.496 684.032 989.184 681.792L989.184 681.792zM989.184 681.792"  horiz-adv-x="1024" />

    
    <glyph glyph-name="ups" unicode="&#59229;" d="M289.312198 601.553874l58.275241 0L347.58744 797.212066c0 18.461467 15.277962 34.236755 34.187637 34.236755 18.708084 0 34.233686-15.775288 34.233686-34.236755l0-195.658192 192.992479 0L609.001241 797.212066c0 18.461467 15.281031 34.236755 34.211173 34.236755 18.953677 0 34.233686-15.775288 34.233686-34.236755l0-195.658192 58.274218 0c29.349445 0 56.078203-11.625782 75.481112-31.54546 18.953677-18.932188 31.076786-45.61592 31.076786-75.257008 0-29.103852-12.122085-55.585993-31.076786-74.741261l0-0.493234c-14.562671-14.316054-33.965579-24.508183-54.846142-28.633131L756.355287 284.530544c0-33.472346-13.846356-64.076364-35.913954-86.391602-21.86703-21.373797-52.717665-35.911908-85.943394-35.911908l-0.985444 0c3.405563-5.357008 5.825682-11.6749 5.825682-18.710131 0-18.929118-15.053857-34.45779-33.965579-34.45779l-58.767452 0 0-138.613988c0-18.463514-15.033391-33.990139-33.988092-33.990139-18.932188 0-33.963533 15.526625-33.963533 33.990139L478.653521 109.058091 420.37828 109.058091c-18.909675 0-34.45779 15.528672-34.45779 34.45779 0 7.03523 1.949398 13.353123 5.825682 18.710131l-0.493234 0c-33.741475 0-64.076364 14.538111-86.660732 35.911908l-1.209548 1.926886c-21.351284 21.373797-34.480302 51.956326-34.480302 84.464717L268.902356 390.884804c-21.104667 4.124947-40.036855 14.316054-54.845119 28.633131l0 0.493234c-19.179828 19.424398-31.076786 45.638433-31.076786 74.741261 0 29.641087 11.896958 56.32482 31.076786 75.257008l1.455141 1.456165C234.71165 590.396767 260.657578 601.553874 289.312198 601.553874L289.312198 601.553874zM289.783942 429.960775 289.783942 429.960775l445.690782 0 0.246617 0 0.470721 0 0.246617 0c17.721617 0 33.988092 7.525394 45.638433 18.682501 11.650341 11.650341 18.932188 28.16241 18.932188 46.108131 0 17.968234-7.281847 34.480302-18.932188 46.130643l0 0.470721c-11.650341 11.672854-28.409027 19.449981-46.354747 19.449981L289.312198 560.802752c-17.476023 0-33.517371-7.283894-45.167712-18.463514l-0.961908-1.456165c-11.629875-11.650341-19.179828-28.16241-19.179828-46.130643 0-17.945721 7.549953-34.45779 19.179828-46.108131l0 0c11.650341-11.650341 27.91477-18.682501 45.636387-18.682501l0.493234 0L289.783942 429.961798 289.783942 429.960775zM715.086371 388.688789 715.086371 388.688789 310.192761 388.688789 310.192761 284.530544c0-21.844517 8.716522-41.49302 22.315238-55.810097l1.232061-1.456165c14.809287-14.316054 34.951023-23.793916 57.511855-23.793916l243.246023 0c21.823028 0 42.23287 9.476839 57.266261 23.793916 14.562671 14.786775 23.323195 34.951023 23.323195 57.266261L715.087395 388.688789 715.086371 388.688789z"  horiz-adv-x="1024" />

    
    <glyph glyph-name="anonymous-iconfont" unicode="&#59104;" d="M332.831 243.474h-15.862v-31.304h15.933c6.077 0 10.342 1.592 12.795 4.762 2.452 3.169 3.676 6.799 3.676 10.89 0 4.792-1.367 8.591-4.101 11.418-2.729 2.816-6.876 4.234-12.442 4.234zM733.722 459.984c-1.198 39.818-15.288 76.672-38.574 107.213l65.792 64.461c0.005 0.005 0.010 0.015 0.020 0.020 0.010 0.010 0.020 0.015 0.026 0.026l0.589 0.573-0.041 0.041c7.532 8.233 5.268 23.265-5.33 34.089-10.604 10.819-25.58 13.384-33.97 6.016l-0.082 0.078-66.995-65.638c-32.051 24.12-71.844 39.9-115.446 43.761v91.786c0 0.010 0 0.020 0 0.036s0 0.026 0 0.036v0.82h-0.056c-0.61 11.146-12.928 20.050-28.078 20.050s-27.464-8.904-28.073-20.050h-0.108v-94.438c-37.596-5.714-71.89-20.342-100.214-41.467l-60.698 65.024c0 0.005-0.010 0.015-0.020 0.026s-0.020 0.015-0.031 0.026l-0.552 0.599-0.036-0.036c-8.049 7.731-23.137 5.837-34.212-4.5-11.075-10.342-14.003-25.257-6.845-33.818l-0.082-0.076 62.295-66.739c-21.412-27.827-35.149-60.943-38.42-96.809h-83.553c-0.010 0-0.020 0-0.036 0s-0.026 0-0.036 0h-0.82v-0.056c-11.146-0.61-20.050-12.928-20.050-28.078s8.904-27.464 20.050-28.073v-0.108h87.982c2.903-13.040 7.276-25.58 12.841-37.54-73.021-14.26-128.128-78.551-128.128-155.74 0-87.45 70.717-158.362 158.080-158.71v-0.010l302.72 0.179c111.631 3.83 200.965 95.468 200.965 208.031-0.005 83.784-49.526 155.971-120.873 189zM518.799 612.309c91.31 0 166.543-60.754 177.044-139.080-15.862 3.866-32.42 5.965-49.47 5.965-89.046 0-164.998-55.916-194.755-134.534-24.852 20.219-55.956 33.050-89.953 35.19-13.496 22.221-21.212 47.601-21.212 74.593 0 87.183 79.852 157.865 178.345 157.865zM370.98 211.648c-2.043-5.53-4.931-9.892-8.658-13.061s-7.342-5.268-10.839-6.308c-3.497-1.039-8.975-1.551-16.43-1.551h-17.234v-43.848h-24.904v118.042h41.216c9.196 0 16.23-1.111 21.104-3.328s9.231-6.18 13.061-11.889c3.835-5.704 5.75-12.708 5.75-21.012 0-5.837-1.030-11.505-3.067-17.044zM501.668 146.875h-24.668v96.251l-26.301-96.251h-16.768l-25.8 96.251v-96.251h-20.53v118.042h38.144l18.355-70.65 19.308 70.652h38.267v-118.042zM595.441 146.875h-78.444v22.922c2.554 2.192 6.764 5.622 12.641 10.291 14.351 11.53 24.796 21.028 31.329 28.488 6.538 7.47 9.81 14.31 9.81 20.541 0 4.562-1.306 8.315-3.912 11.284s-6.098 4.454-10.496 4.454c-10.214 0-16.138-7.526-17.772-22.569l-21.606 5.448c4.849 25.994 18.309 38.999 40.371 38.999 12.36 0 21.848-3.666 28.462-10.988 6.614-7.327 9.923-16.056 9.923-26.204 0-10.491-3.461-19.86-10.378-28.099-6.922-8.248-19.651-18.591-38.184-31.048h50.028l-1.772-23.521zM636.042 146.875h-23.67v26.721h23.67v-26.721zM721.418 156.777c-7.127-7.808-17.096-11.709-29.916-11.709-22.272 0-36.035 11.182-41.294 33.552l22.984 3.891c2.35-10.378 8.172-15.57 17.464-15.57 5.11 0 9.17 1.792 12.18 5.371 3.016 3.569 4.521 7.782 4.521 12.622 0 5.069-1.582 9.431-4.751 13.061-3.164 3.63-7.071 5.448-11.72 5.448-6.487 0-11.489-3.062-15.017-9.17l-19.948 3.722 4.096 66.929h65.879l-2.678-24.212h-45.66l-1.684-26.291c5.622 6.738 13.051 10.122 22.292 10.122 9.446 0 17.464-3.512 24.054-10.511 6.584-6.999 9.882-16.041 9.882-27.11 0-12.283-3.558-22.322-10.685-30.141z"  horiz-adv-x="1024" />

    
    <glyph glyph-name="xiangji" unicode="&#58961;" d="M979.2-32 51.2-32c-25.6 0-51.2 19.2-51.2 44.8l0 640C0 678.4 19.2 704 51.2 704l204.8 0 76.8 76.8c6.4 12.8 25.6 19.2 38.4 19.2l288 0c12.8 0 25.6-6.4 32-12.8l0 0L780.8 704l204.8 0c25.6 0 51.2-19.2 51.2-51.2l0-640C1030.4-12.8 1011.2-32 979.2-32zM518.4 640C358.4 640 230.4 512 230.4 352S358.4 64 518.4 64s288 128 288 288S678.4 640 518.4 640zM518.4 160c-108.8 0-192 83.2-192 192s83.2 192 192 192 192-83.2 192-192S627.2 160 518.4 160z"  horiz-adv-x="1037" />

    
    <glyph glyph-name="jishuzhichizhichizhinengzhinengfuwufuwukefujishu" unicode="&#59022;" d="M901.802667 460.629333c-22.357333 43.349333-47.616 92.501333-64.853333 137.898667-45.568 121.173333-123.904 245.248-360.448 245.248C230.570667 843.776 73.386667 630.101333 73.386667 482.986667c0-131.242667 58.538667-227.669333 97.109333-291.498667 16.896-27.989333 30.208-50.005333 30.037333-61.781333l0-185.002667c0-10.752 13.824-20.48 27.818667-20.48 16.213333 0 29.866667 6.826667 29.866667 20.309333L258.218667 129.706667c0 22.528-17.92 56.149333-40.96 98.816-36.181333 67.584-85.845333 159.914667-86.186667 254.464C130.218667 641.536 302.592 773.632 454.826667 785.066667l0-254.122667c-64.853333-11.434667-112.981333-73.216-112.981333-146.944 0-77.653333 59.392-136.021333 138.24-136.021333 28.672 0 56.149333 8.533333 79.872 24.746667l60.928-43.178667c-1.706667-28.16 22.186667-52.053333 50.005333-52.053333 27.648 0 50.176 22.528 50.176 50.005333 0 33.792-32.768 57.344-64.512 47.786667L600.746667 314.709333c14.165333 22.528 21.504 48.128 21.504 74.752 0 64.682667-45.568 122.026667-109.226667 138.752L513.024 784.213333c136.704-10.24 229.034667-80.896 267.434667-204.8 10.581333-34.645333 45.056-96.426667 72.704-146.090667 18.090667-32.597333 38.570667-69.461333 39.936-77.141333-4.266667-9.216-51.882667-32.938667-94.037333-49.834667l-4.949333-1.877333 0-118.272c0-1.024-0.682667-25.258667-26.112-51.2-23.722667-24.405333-78.848-25.941333-79.36-25.941333l-64.170667 0 0-164.352 0.512-1.365333c2.730667-6.997333 11.434667-18.944 26.624-18.944 21.333333 0 29.184 13.312 30.549333 20.48l0.170667 106.325333c18.773333-0.512 65.194667 1.877333 109.397333 29.866667 60.757333 38.570667 60.245333 102.741333 60.074667 105.472l0 79.189333c21.845333 7.68 94.208 35.84 98.816 75.264C952.661333 360.448 934.4 397.312 901.802667 460.629333L901.802667 460.629333zM564.224 389.290667c0-46.421333-37.888-83.968-84.138667-83.968-46.421333 0-84.309333 37.717333-84.309333 83.968 0 46.250667 37.717333 83.968 84.138667 83.968C526.336 473.088 564.224 435.541333 564.224 389.290667z"  horiz-adv-x="1024" />

    
    <glyph glyph-name="dian" unicode="&#58960;" d="M14.02496-119.96288l366.5152 421.75232-202.54976 124.72192L1009.95456 885.40416l-366.5152-421.7536 202.54976-124.72192L14.02496-119.96288zM254.1888 424.68864l185.02016-113.92768L184.93056 18.15808l584.86016 322.59456-185.02016 113.92768 254.27968 292.60288L254.1888 424.68864z"  horiz-adv-x="1024" />

    
    <glyph glyph-name="banben" unicode="&#59839;" d="M373.947296 832.040293 167.309028 832.040293c-57.07388 0-103.319134-46.245254-103.319134-103.320157l0-206.638267c0-57.07388 46.24423-103.319134 103.319134-103.319134l206.638267 0c57.07388 0 103.319134 46.24423 103.319134 103.319134L477.266429 728.720136C477.265406 785.794016 431.021176 832.040293 373.947296 832.040293zM408.386666 556.522262c0-57.040111-11.80486-68.879764-68.879764-68.879764L201.748399 487.642498c-57.07388 0-68.879764 11.838629-68.879764 68.879764L132.868635 694.280766c0 57.07388 11.80486 68.879764 68.879764 68.879764l137.759527 0c57.07388 0 68.879764-11.80486 68.879764-68.879764L408.387689 556.522262zM856.10257 832.040293 649.464303 832.040293c-57.07388 0-103.319134-46.245254-103.319134-103.320157l0-206.638267c0-57.07388 46.24423-103.319134 103.319134-103.319134l206.639291 0c57.07388 0 103.319134 46.24423 103.319134 103.319134L959.422727 728.720136C959.421704 785.794016 913.177474 832.040293 856.10257 832.040293zM890.542964 556.522262c0-57.040111-11.80486-68.879764-68.879764-68.879764L683.903673 487.642498c-57.07388 0-68.879764 11.838629-68.879764 68.879764L615.02391 694.280766c0 57.07388 11.80486 68.879764 68.879764 68.879764l137.759527 0c57.07388 0 68.879764-11.80486 68.879764-68.879764L890.542964 556.522262zM373.947296 349.883995 167.309028 349.883995c-57.07388 0-103.319134-46.24423-103.319134-103.319134l0-206.65464c0-57.041134 46.24423-103.320157 103.319134-103.320157l206.638267 0c57.07388 0 103.319134 46.279023 103.319134 103.320157L477.266429 246.564861C477.265406 303.639764 431.021176 349.883995 373.947296 349.883995zM408.386666 74.349591c0-57.041134-11.80486-68.880787-68.879764-68.880787L201.748399 5.468804c-57.07388 0-68.879764 11.838629-68.879764 68.880787L132.868635 212.108095c0 57.091276 11.80486 68.896136 68.879764 68.896136l137.759527 0c57.07388 0 68.879764-11.80486 68.879764-68.896136L408.387689 74.349591zM856.10257 349.883995 649.464303 349.883995c-57.07388 0-103.319134-46.24423-103.319134-103.319134l0-206.65464c0-57.041134 46.24423-103.320157 103.319134-103.320157l206.639291 0c57.07388 0 103.319134 46.279023 103.319134 103.320157L959.422727 246.564861C959.421704 303.639764 913.177474 349.883995 856.10257 349.883995zM890.542964 74.349591c0-57.041134-11.80486-68.880787-68.879764-68.880787L683.903673 5.468804c-57.07388 0-68.879764 11.838629-68.879764 68.880787L615.02391 212.108095c0 57.091276 11.80486 68.896136 68.879764 68.896136l137.759527 0c57.07388 0 68.879764-11.80486 68.879764-68.896136L890.542964 74.349591z"  horiz-adv-x="1024" />

    
    <glyph glyph-name="rongliang-copy" unicode="&#58885;" d="M846.126 745.953h-666.686l-116.594-346.507v-363.433h898.307v76.669l-0 286.764-115.027 346.507zM201.451 698.989h622.714l89.93-315.895h-195.451l-104.994-105.045h-203.199l-105.001 105.045h-195.449l91.452 315.895zM913.907 79.885l-803.908 0.714-0.238 31.989-0 213.75h184.515l106.425-106.375h222.504l106.468 106.375h184.472v-213.75l-0.237-32.703zM913.907 79.885z"  horiz-adv-x="1024" />

    
    <glyph glyph-name="xunzhang" unicode="&#59027;" d="M517.20914 693.954331c-102.97121 0-186.745195-83.772962-186.745195-186.745195 0-102.972233 83.772962-186.745195 186.745195-186.745195 102.972233 0 186.745195 83.772962 186.745195 186.745195C703.954335 610.181369 620.181373 693.954331 517.20914 693.954331zM517.20914 371.629251c-74.758658 0-135.579885 60.821227-135.579885 135.579885 0 74.758658 60.821227 135.579885 135.579885 135.579885 74.759681 0 135.579885-60.821227 135.579885-135.579885C652.789025 432.450479 591.968821 371.629251 517.20914 371.629251zM819.447742 364.932736c20.859074 44.071751 31.858592 92.586698 31.858592 142.792147 0 89.239464-34.752502 173.137269-97.854679 236.239446S606.45065 841.819007 517.211187 841.819007s-173.137269-34.751478-236.239446-97.853655-97.853655-146.999982-97.853655-236.239446c0-50.687426 11.224646-99.645464 32.474622-144.053883L64.835146 101.634004l197.854207-2.211365 95.677083-167.819147 139.570779 242.592131c6.393617-0.361227 12.817933-0.564865 19.274996-0.564865 6.720052 0 13.406335 0.222057 20.059871 0.61296l126.125559-228.019227 104.205317 168.20391 193.114253-4.88731L819.447742 364.932736zM358.568027 34.55526 292.603663 150.255375l-139.866515 1.563612 92.818989 161.332409c10.56359-14.682397 22.373567-28.624944 35.415604-41.666982 45.292556-45.293579 101.301174-75.977415 162.306596-89.690742L358.568027 34.55526zM527.158746 224.989473c-3.304256-0.11461-6.615675-0.193405-9.94756-0.193405-2.664689 0-5.320169 0.045025-7.968485 0.11768-45.554522 1.266853-88.449471 13.353123-126.205377 33.776268-4.367471 2.362814-8.667404 4.836145-12.893658 7.417947-47.327912 28.915563-85.529979 71.343885-109.23282 121.874745-17.067724 36.386722-26.628474 76.965929-26.628474 119.743198 0 156.007123 126.921691 282.928814 282.928814 282.928814s282.928814-126.921691 282.928814-282.928814c0-35.470863-6.580882-69.429279-18.553565-100.742449-12.55699-32.844036-33.127492-61.045331-54.19532-88.448448C671.120532 245.34201 540.176225 225.442798 527.158746 224.989473zM739.560274 166.318212 665.896554 47.413102l-74.381058 134.468574c60.862159 13.755282 116.734678 44.403303 161.935136 89.603761 13.217023 13.217023 25.172309 27.356045 35.842323 42.256406l83.408665-150.791331L739.560274 166.318212z"  horiz-adv-x="1024" />

    
    <glyph glyph-name="huangguan" unicode="&#59147;" d="M953.484482 418.843576c-19.84293 83.992973-95.55224 92.619444-140.181693 79.124082-30.694069 140.045593-181.362604 137.339971-254.039857 50.414203-17.35425 35.510772-24.877597 82.643232-26.071795 109.295242 22.101367-1.354857 44.727691-5.107321 65.886593-11.743462 8.15575 20.893866 8.15575 54.940286 0 75.889411-21.158902-6.625908-43.785226-10.32209-65.886593-11.850909 1.194198 26.762527 4.26514 54.238298 9.780761 79.888492-8.682753 4.983501-20.010753 7.390317-31.31931 7.390317-11.326976 0-22.654976-2.406816-31.315216-7.390317 5.493108-25.650193 8.56098-53.125965 9.773598-79.888492-22.096251 1.527796-44.701085 5.225001-65.878406 11.850909-8.133238-20.949124-8.133238-54.995545 0-75.889411 21.178345 6.636141 43.788296 10.388605 65.878406 11.743462-1.159406-26.65201-8.691963-73.779354-26.088168-109.295242-72.634274 86.926792-223.326345 89.63139-254.015298-50.414203-44.659129 13.501502-120.314203 4.868891-140.138714-79.124082-26.452465-111.878067 78.710666-165.695786 147.906631-278.394544 28.606525-46.598294 33.616632-95.724155 37.106106-128.771829 2.489704-23.364127 11.105942-33.992185 34.047444-33.992185L511.646448-22.314982l222.73999 0c22.925129 0 31.517831 10.628058 34.012651 33.992185 3.462868 33.047674 8.567119 82.173534 37.106106 128.771829C874.755396 253.14779 979.893968 306.966533 953.484482 418.843576L953.484482 418.843576zM285.335119 111.395322c-42.602284 128.483256-144.30357 200.207811-128.788202 274.631848 6.217608 29.528524 24.610514 48.016597 52.786227 49.01432 19.434631-96.145757 110.969371-173.266206 144.343479-302.694997C324.297502 126.064416 311.230905 121.25897 285.335119 111.395322L285.335119 111.395322zM405.233859 141.508153c-17.718547 138.872884-124.430964 223.977167-78.149894 325.232293 25.504884 55.878658 87.710644 54.464449 122.924657 27.528983-31.368428-118.92046 29.046546-202.794729 32.719192-343.491145C463.658504 150.251282 428.783205 144.907577 405.233859 141.508153L405.233859 141.508153zM540.579407 150.778284c3.698229 140.696416 64.064085 224.570685 32.69668 343.491145 35.239596 26.934442 97.467869 28.341488 122.927727-27.528983 46.297442-101.255125-60.440557-186.359408-78.124312-325.232293C594.554716 144.907577 559.650765 150.251282 540.579407 150.778284L540.579407 150.778284zM737.954707 111.395322c-25.901926 9.863648-38.966477 14.677281-68.303642 20.952194 33.379225 129.420605 124.869962 206.544123 144.324036 302.694997 28.175713-0.997724 46.566572-19.485797 52.81488-49.01432C882.303302 311.604156 780.57848 239.878578 737.954707 111.395322L737.954707 111.395322zM737.954707 111.395322"  horiz-adv-x="1024" />

    
    <glyph glyph-name="hongwaixian" unicode="&#59685;" d="M734.451613 236.387097c57.806452 34.064516 97.032258 100.645161 97.032258 177.032258 0 110.967742-84.645161 201.806452-187.870968 201.806452S455.741935 525.419355 455.741935 413.935484c0-75.870968 39.741935-142.451613 97.032258-176.516129-65.032258-22.193548-109.419355-65.032258-136.258065-103.225806-43.870968-59.870968-69.16129-139.354839-69.16129-211.612903 0-12.387097 9.806452-22.193548 22.193548-22.193548 12.387097 0 22.193548 9.806452 22.193548 22.193548 0 49.032258 15.483871 123.870968 60.903226 185.806452 32.516129 45.419355 92.387097 100.129032 191.483871 100.129032 173.419355 0 253.935484-169.806452 253.935484-285.935484 0-12.387097 9.806452-22.193548 22.193548-22.193548 12.387097 0 22.193548 9.806452 22.193548 22.193548C941.419355 33.032258 875.354839 188.387097 734.451613 236.387097zM500.129032 412.903226c0 86.709677 65.032258 157.419355 144 157.419355 78.967742 0 144-70.193548 144-157.419355s-65.032258-157.419355-144-157.419355C565.16129 255.483871 500.129032 326.193548 500.129032 412.903226zM325.16129 840.774194c-1.032258 11.354839-11.354839 19.612903-22.709677 19.096774s-19.612903-11.354839-19.096774-22.709677c8.774194-105.290323-70.193548-197.677419-176-205.419355-11.354839-1.032258-19.612903-11.354839-19.096774-22.709677 1.032258-6.709677 3.612903-11.354839 8.774194-14.967742 3.612903-2.580645 9.290323-4.645161 13.935484-4.645161C238.451613 601.290323 335.483871 712.774194 325.16129 840.774194zM434.064516 849.032258c-1.032258 11.354839-11.354839 19.612903-22.709677 19.096774-11.354839-0.516129-19.612903-11.354839-19.096774-22.709677 12.903226-164.645161-110.967742-309.16129-275.612903-322.580645-11.354839-1.032258-19.612903-11.354839-19.096774-22.709677 1.032258-6.709677 3.612903-11.354839 8.774194-14.967742 3.612903-2.580645 9.290323-4.645161 13.935484-4.645161C307.612903 496.516129 448 661.16129 434.064516 849.032258zM104.774194 683.870968c36.645161 2.580645 69.677419 19.612903 94.451613 48 21.677419 29.935484 34.064516 64.516129 31.483871 101.16129-1.032258 11.354839-11.354839 19.612903-22.709677 19.096774-11.354839-1.032258-19.612903-11.354839-19.096774-22.709677 1.548387-25.290323-5.16129-50.064516-22.709677-69.677419-17.032258-19.612903-39.741935-30.967742-65.032258-33.032258-11.354839-1.032258-19.612903-11.354839-19.096774-22.709677 1.032258-6.709677 3.612903-11.354839 8.774194-14.967742C94.451613 685.935484 100.129032 683.870968 104.774194 683.870968z"  horiz-adv-x="1024" />

    
    <glyph glyph-name="houtui" unicode="&#58914;" d="M448.965361 657.696546l0-128.965234 0-41.020252 40.405245-0.414439c280.753265-2.75474 438.905238-129.524982 480.084103-386.42191C815.220976 281.985582 637.399011 282.070516 489.776859 282.111448l-40.812521 0 0-41.434691 0-127.101793L70.607104 385.655709 448.965361 657.696546 448.965361 657.696546zM489.776859 737.854167 0.021489 385.655709l489.756393-352.194364L489.777883 240.676757c196.006116-0.084934 377.747343-10.111289 531.428491-288.347221 0 176.698375-28.751834 571.47251-531.428491 576.401776L489.777883 737.854167 489.776859 737.854167"  horiz-adv-x="1024" />

    
    <glyph glyph-name="21pingjunqiwen" unicode="&#58979;" d="M556.68 312.68v300.244h-57.962v-298.754c-49.824-11.79-86.943-56.45-86.943-109.879 0-62.42 50.6-113.026 113.026-113.026 62.42 0 113.026 50.607 113.026 113.026 0 51.337-34.261 94.618-81.147 108.39zM655.216 385.319v311.65c0 72.024-58.391 130.415-130.415 130.415s-130.415-58.39-130.415-130.414v-311.651c-56.154-40.528-92.74-106.488-92.74-181.028 0-123.245 99.91-223.154 223.155-223.154s223.154 99.91 223.154 223.154c0 74.54-36.58 140.5-92.74 181.028zM524.8 33.303c-94.432 0-170.988 76.556-170.988 170.988 0 66.228 37.675 123.616 92.739 152.018v340.66c0 43.217 35.032 78.25 78.249 78.25s78.249-35.033 78.249-78.25v-340.66c55.064-28.402 92.74-85.79 92.74-152.018 0-94.438-76.551-170.988-170.99-170.988z"  horiz-adv-x="1024" />

    
    <glyph glyph-name="dianzan" unicode="&#58887;" d="M261.412-94.105c0 0 0.313-22.466-28.436-22.466h-137.785c0 0-33.935 0-33.935 33.935l-32.992 533.699c0 0 0.471 32.365 33.465 32.365h159.151c0 0 40.534 0.471 40.534-40.534v-536.999zM896.917-17.75c0 0-30.637-98.82-68.183-98.82h-399.842c-27.809 0-98.82 18.853-98.82 71.012v529.142c0 0 197.644 146.269 197.644 332.755 5.655 9.741-9.741 68.183 64.1 68.183 0 0 174.077-19.483 71.012-401.1h265.986c0 0 66.771 5.655 66.771-64.1 0.158 0.158 0.158-100.080-98.666-437.077z"  horiz-adv-x="1024" />

    
    <glyph glyph-name="dizhi" unicode="&#58912;" d="M684.43136 111.40096H340.13696a10.5984 10.5984 0 0 1-10.62912-10.62912v-22.52288a10.5984 10.5984 0 0 1 10.62912-10.62912h344.2944c5.888 0 10.62912 4.736 10.62912 10.62912v22.52288a10.60352 10.60352 0 0 1-10.62912 10.62912zM512.2816 744.99584c-124.66176 0-225.6384-95.08352-225.6384-212.46976 0-117.38112 215.81824-375.25504 225.6384-375.25504 21.8368 0 225.6384 257.87392 225.6384 375.1424 0 117.38112-100.97664 212.5824-225.6384 212.5824z m2.30912-525.57312c-57.6512 67.93728-182.89152 239.73376-182.89152 313.09824 0.11776 92.20096 81.10592 167.296 180.5824 167.296 99.47648 0 180.46976-75.09504 180.46976-167.296 0-77.056-121.66144-249.20064-178.16064-313.09824zM512.62976 661.69344c-73.71264 0-133.67296-58.69056-133.67296-130.89792s59.96032-130.89792 133.67296-130.89792c73.70752 0 133.66784 58.69056 133.66784 130.89792s-59.9552 130.89792-133.66784 130.89792z m0-216.6272c-48.8704 0-88.4992 38.35904-88.4992 85.72928s39.6288 85.72416 88.4992 85.72416 88.4992-38.35392 88.4992-85.72416-39.6288-85.72928-88.4992-85.72928zM512.256 870.144c-269.312 0.512-486.912-217.088-486.912-485.888s217.6-486.4 486.4-486.4c266.24 0 481.792 212.99712 486.4 478.208h0.512v7.68c0 268.8-217.6 486.4-486.4 486.4z m430.592-485.888c0-119.296-48.128-226.816-126.464-305.152-78.336-77.824-185.856-126.464-305.15712-126.464-119.296 0-226.816 48.12288-305.152 126.464-78.336 78.336-126.464 185.856-126.464 305.152s48.128 226.816 126.464 305.15712c78.848 77.81888 186.368 125.95712 305.664 125.95712 119.296 0 226.816-48.128 305.152-126.464 75.78624-76.28288 123.904-180.736 126.464-296.96l-0.50688-7.69024z"  horiz-adv-x="1024" />

    
    <glyph glyph-name="kongtiao" unicode="&#58956;" d="M1012.695 896H134.466C60.577 896 0 836.365 0 763.008v-315.38c0-73.356 60.004-133.523 134.466-133.523h878.803c73.889 0 134.466 59.594 134.466 133.524v315.38C1147.162 836.364 1087.117 896 1012.695 896z m73.89-460.945c0-35.552-28.262-64.797-62.913-64.797H120.008c-34.61 0-62.871 29.245-62.871 64.797v335.94c0 35.552 28.261 64.796 62.871 64.796h903.664c34.61 0 62.912-29.244 62.912-64.796v-335.94z m-110.22 170.264H146.55a24.288 24.288 0 0 1-24.206-24.084c0-13.189 10.936-24.084 24.206-24.084h829.816a24.288 24.288 0 0 1 24.207 24.084 24.288 24.288 0 0 1-24.207 24.084z m0-96.867H146.55a24.288 24.288 0 0 1-24.206-24.084c0-13.188 10.936-24.083 24.206-24.083h829.816a24.288 24.288 0 0 1 24.207 24.083 24.288 24.288 0 0 1-24.207 24.084zM268.277 197.66c-15.564 41.86-53.655 56.768-58.283 58.448a24.165 24.165 0 0 1-31.129-14.336 23.96 23.96 0 0 1 14.418-30.923s21.298-8.602 29.408-29.818c6.963-18.35 1.72-43.006-14.418-72.25-56.522-99.202-5.201-162.81 30.023-182.88a24.37 24.37 0 0 1 12.082-3.44 25.23 25.23 0 0 1 21.38 12.041 24.247 24.247 0 0 1-8.682 33.259c-5.735 3.44-57.096 37.272-11.51 116.936 23.06 42.433 28.835 80.278 16.711 112.963z m323.162 0c-15.564 41.86-53.656 56.768-58.284 58.448a24.165 24.165 0 0 1-31.17-14.336 23.96 23.96 0 0 1 14.418-30.923s21.34-8.602 29.45-29.818c6.921-18.35 1.72-43.006-14.46-72.25-56.522-99.202-5.16-162.81 30.023-182.88a24.37 24.37 0 0 1 12.124-3.44 25.23 25.23 0 0 1 21.34 12.041 24.247 24.247 0 0 1-8.643 33.259c-5.775 3.44-57.137 37.272-11.55 116.936 23.1 42.433 28.875 80.278 16.752 112.963z m-156.953-30.965c-16.752 44.727-60.045 61.356-61.765 61.93a24.165 24.165 0 0 1-31.128-14.336 24.165 24.165 0 0 1 13.844-30.964s24.78-9.749 32.89-33.832c7.495-20.643 1.72-47.02-16.18-79.132-74.994-132.418 30.597-194.347 31.743-194.92a24.37 24.37 0 0 1 12.124-3.441 25.23 25.23 0 0 1 21.34 12.042 24.247 24.247 0 0 1-8.643 33.258c-6.963 4.014-63.485 41.286-13.27 129.019 25.394 45.873 31.742 85.971 19.045 120.376z m502.56-10.895a26.541 26.541 0 0 1 9.83 37.273 26.91 26.91 0 0 1-37.518 9.748 26.623 26.623 0 0 1-13.271-23.51l-40.385-23.51v47.593c0 0.574 0.574 0.574 0.574 1.147a26.746 26.746 0 0 1 13.843 22.937 27.237 27.237 0 0 1-27.687 27.524 27.237 27.237 0 0 1-27.688-27.524c0-11.469 6.922-21.217 16.71-25.23v-50.461l-47.306 26.95a27.32 27.32 0 0 1-13.27 23.51 27.893 27.893 0 0 1-37.519-9.748 27.524 27.524 0 0 1 9.83-37.272c8.643-5.16 19.046-4.014 27.115 0l42.72-24.083-42.72-24.084a26.992 26.992 0 0 1-27.115 0 26.541 26.541 0 0 1-9.83-37.272 26.91 26.91 0 0 1 37.518-9.748 26.623 26.623 0 0 1 13.27 23.51l47.308 26.95v-49.887a27.155 27.155 0 0 1-16.711-25.23c0-15.482 12.123-27.524 27.688-27.524 15.564 0 27.687 12.042 27.687 27.524a26.377 26.377 0 0 1-14.417 23.51v47.594l40.385-23.51c0-9.175 4.628-18.35 13.27-23.51 13.271-7.455 30.023-2.868 37.518 9.748a27.524 27.524 0 0 1-9.83 37.272c-8.6 5.16-19.004 4.014-27.073 0l-42.72 24.083 42.72 24.084c8.069-2.867 18.431-4.014 27.114 1.146z"  horiz-adv-x="1187" />

    
    <glyph glyph-name="kaixin" unicode="&#58967;" d="M510.976-82.432c257.536 0 466.944 209.408 466.944 466.944S768.512 851.968 510.976 851.968 44.032 642.56 44.032 385.024s209.408-467.456 466.944-467.456m0-38.912C231.936-121.344 5.12 105.472 5.12 385.024S231.936 890.88 510.976 890.88s505.856-226.304 505.856-505.856-226.304-506.368-505.856-506.368zM335.872 423.936c-32.256 0-58.368 26.112-58.368 58.368 0 32.256 26.112 58.368 58.368 58.368 32.256 0 58.368-26.112 58.368-58.368 0-32.256-26.112-58.368-58.368-58.368z m350.208 0c-32.256 0-58.368 26.112-58.368 58.368 0 32.256 26.112 58.368 58.368 58.368 32.256 0 58.368-26.112 58.368-58.368 0-32.256-26.112-58.368-58.368-58.368zM755.2 336.896c-12.288 0-22.016-9.728-22.016-22.016 0-121.856-98.816-221.184-221.184-221.184-121.856 0-221.184 98.816-221.184 221.184 0 12.288-9.728 22.016-22.016 22.016s-22.016-9.728-22.016-22.016c0-146.432 118.784-265.216 265.216-265.216 146.432 0 265.216 118.784 265.216 265.216 0 12.288-9.728 22.016-22.016 22.016z"  horiz-adv-x="1024" />

    
    <glyph glyph-name="zhanghao" unicode="&#58886;" d="M515.54 834C265.079 834 62 630.92 62 380.46c0-250.5 203.08-453.54 453.54-453.54 250.461 0 453.54 203.04 453.54 453.54C969.08 630.921 766 834 515.54 834z m0-861.741c-225.441 0-408.2 182.76-408.2 408.2s182.76 408.2 408.2 408.2c225.441 0 408.2-182.76 408.2-408.2 0-225.441-182.76-408.2-408.2-408.2zM617.58 272.16c-71.799 10.02-48 86.76-50.32 85.64-2.38-1.14 0.6 16.14 0.6 16.14 41.3 21.92 49.44 82.821 49.44 82.821v71.36s-10.62 83.001-76.62 83.001l-41.24 18.78c-73.42 0-81.84-101.76-81.84-101.76s0.62-22.22 0-65.1c-0.56-42.88 51.38-90.441 51.38-90.441s2.94-17.28 0.6-16.14c-2.38 1.119 19.38-74.18-52.38-84.2-71.799-10.02-114.16-52.02-127.68-64.26-23.48-28.7-21.141-76.98-21.141-76.98h495.06s1.539 44.16-16.34 72.8c-9.441 15.279-57.76 58.32-129.52 68.34z"  horiz-adv-x="1024" />

    
    <glyph glyph-name="fenxiang" unicode="&#59092;" d="M575.146667 145.635556l-221.639111 123.221333a170.666667 170.666667 0 1 0 9.898666 218.453333l213.845334 128.284445a170.666667 170.666667 0 1 0 26.453333-50.460445L389.859556 436.849778a170.552889 170.552889 0 0 0-5.404445-120.092445l215.096889-119.523555a170.666667 170.666667 0 1 0-24.405333-51.541334zM739.555556 554.666667a113.777778 113.777778 0 1 1 0 227.555555 113.777778 113.777778 0 0 1 0-227.555555z m0-568.888889a113.777778 113.777778 0 1 1 0 227.555555 113.777778 113.777778 0 0 1 0-227.555555z m-512 284.444444a113.777778 113.777778 0 1 1 0 227.555556 113.777778 113.777778 0 0 1 0-227.555556z"  horiz-adv-x="1024" />

    
    <glyph glyph-name="yangan" unicode="&#58889;" d="M896 704v-192a256 256 0 0 0-256-256H384a256 256 0 0 0-256 256V704H64V768h896v-64h-64z m-64 0H192v-192a192 192 0 0 1 192-192h256a192 192 0 0 1 192 192V704z m-192-128h128v-64h-128V576zM448 576h128v-64H448V576zM256 576h128v-64H256V576z m128.448-578.752c1.152-50.112 28.928-61.248 63.552-61.248v-64c-70.656 0-128 39.616-128 128 0 11.008-1.664 53.632 0 64-5.312 32-21.312 64-64 64v64c135.424 0 133.504-148.928 128.448-194.752zM448 128v64c135.36 0 133.504-148.928 128.448-194.752 1.152-50.112 28.928-61.248 63.552-61.248v-64c-70.656 0-128 39.616-128 128 0 11.008-1.664 53.632 0 64-5.312 32-21.312 64-64 64z m192 0v64c135.36 0 133.504-148.928 128.448-194.752 1.152-50.112 28.928-61.248 63.552-61.248v-64c-70.656 0-128 39.616-128 128 0 11.008-1.664 53.632 0 64-5.376 32-21.376 64-64 64z"  horiz-adv-x="1024" />

    
    <glyph glyph-name="gufengji" unicode="&#58954;" d="M512 896C229.376 896 0 666.624 0 384s229.376-512 512-512 512 229.376 512 512S794.624 896 512 896z m347.648-859.648c-45.056-45.056-97.792-80.384-156.16-105.472-60.416-25.6-124.928-38.4-191.488-38.4s-130.56 12.8-191.488 38.4c-58.368 24.576-111.104 60.416-156.16 105.472s-80.384 97.792-105.472 156.16C33.28 253.44 20.48 317.44 20.48 384s12.8 130.56 38.4 191.488c24.576 58.368 60.416 111.104 105.472 156.16s97.792 80.384 156.16 105.472C381.44 862.72 445.44 875.52 512 875.52s130.56-12.8 191.488-38.4c58.368-24.576 111.104-60.416 156.16-105.472s80.384-97.792 105.472-156.16c25.6-60.416 38.4-124.928 38.4-191.488s-12.8-130.56-38.4-191.488c-25.088-58.368-60.416-111.104-105.472-156.16zM485.376 456.192c22.528 6.144 45.568 4.608 65.536-4.096 10.24 38.4 41.984 99.84 57.856 128.512 0.512 0.512 1.024 1.536 1.024 2.048l1.536 3.072c1.536 3.072 5.12 10.24 5.12 11.776 12.288 36.864-2.56 77.824-37.376 97.792-39.936 22.528-90.112 8.704-113.152-30.72-3.584-6.144-6.144-12.8-8.192-19.968-28.672-80.384-4.096-154.624 14.848-193.536 4.096 2.048 8.192 3.584 12.8 5.12zM800.256 247.296c-3.584 6.144-8.192 11.776-13.312 16.896-55.296 65.024-132.096 80.384-175.104 83.968-2.56-21.504-11.776-41.984-27.648-58.368-3.584-3.584-7.168-6.656-10.752-9.216 28.16-28.16 65.536-86.528 82.432-114.176 0.512-0.512 1.024-1.536 1.024-2.048 0.512-1.024 1.536-2.048 2.048-3.072 2.048-3.072 6.144-9.728 7.68-10.24 25.6-28.672 69.12-36.864 103.424-16.384 39.936 22.528 53.248 73.216 30.208 112.64zM413.184 346.624c-38.4-10.24-107.52-13.824-140.288-14.336h-6.144c-3.584 0-11.264-0.512-12.8-1.536-37.888-7.68-66.048-41.472-66.048-81.408 0-45.568 37.376-82.432 82.944-82.432 7.168 0 14.336 1.024 21.504 3.072 83.968 15.36 135.68 73.728 160.256 109.568-3.584 2.56-7.168 5.632-10.24 8.704-16.896 15.872-26.624 36.864-29.184 58.368zM436.736 359.424c0-41.472 33.792-75.264 75.264-75.264s75.264 33.792 75.264 75.264-33.792 75.264-75.264 75.264c-41.472 0.512-75.264-33.28-75.264-75.264z"  horiz-adv-x="1025" />

    
    <glyph glyph-name="zuanshi" unicode="&#58888;" d="M305.738 733.436h171.038l-146.328-198.828-192.35-0 167.639 198.828zM696.464 499.323h188.818l-324.82-385.727 136.001 385.727zM374.263 534.607l137.408 186.704 137.419-186.704h-274.826zM659.055 499.323l-147.385-417.993-147.369 417.993h294.754zM326.883 499.323l136-385.727-324.816 385.727h188.815zM885.248 534.607h-192.347l-146.339 198.828h171.058l167.628-198.828zM936.688 528.336l-197.379 234.112c-3.348 3.977-8.283 6.271-13.487 6.271h-428.283c-5.201 0-10.136-2.294-13.489-6.271l-197.391-234.112c-4.424-5.244-5.406-12.583-2.512-18.807 0.669-1.432 1.554-2.72 2.543-3.892l-0.039-0.036 425.019-504.719 424.983 504.755c0.992 1.172 1.875 2.46 2.543 3.892 2.896 6.225 1.917 13.564-2.507 18.807z"  horiz-adv-x="1024" />

    
    <glyph glyph-name="loushui" unicode="&#58950;" d="M711.930495 252.154159c20.00359 0 38.974663-6.989181 56.009642-19.491936 0.268106 7.193843 0.410346 14.58416 0.410345 22.190395 0 310.10271-255.43974 540.650527-255.439739 540.650527S257.472026 564.954305 257.472026 254.851595s228.460272-272.760221 255.43974-272.760221c8.371668 0 36.147268-3.592828 70.473051 0.713244-3.247974 18.295692-4.988618 37.592177-4.988618 57.535391 0 116.981295 59.785641 211.81415 133.534296 211.81415zM714.576765 81.627345c41.955554 0 20.466124 82.547041 0 103.013165-20.466124-20.467147-44.684712-103.013165 0-103.013165zM665.116283-18.656663c41.955554 0 20.466124 82.547041 0 103.013165-20.466124-20.467147-44.683688-103.013165 0-103.013165zM790.215466 135.862573c-20.466124-20.466124-44.684712-103.013165 0-103.013165 41.955554 0 20.466124 82.547041 0 103.013165z"  horiz-adv-x="1024" />

    
    <glyph glyph-name="wenhao" unicode="&#59023;" d="M508.75392 815.6672c-242.7904 0-440.32-197.5296-440.32-440.32s197.5296-440.32 440.32-440.32 440.32 197.5296 440.32 440.32c0.01024 242.80064-197.51936 440.32-440.32 440.32z m0-839.68c-220.2112 0-399.36 179.1488-399.36 399.36s179.1488 399.36 399.36 399.36 399.36-179.1488 399.36-399.36-179.1488-399.36-399.36-399.36zM476.16 251.09504h52.96128v-50.93376H476.16zM522.99776 613.67296c-80.13824 2.70336-129.024-33.30048-146.65728-107.96032l42.77248-14.26432c10.8544 58.368 44.11392 86.2208 99.80928 83.5072 43.44832-4.06528 67.8912-25.81504 73.32864-65.1776 4.07552-32.59392-14.96064-63.13984-57.0368-91.65824-36.6592-25.81504-54.3232-57.74336-52.95104-95.744v-20.36736h42.77248v18.3296c-1.37216 28.5184 12.21632 52.26496 40.74496 71.30112 51.58912 35.28704 76.04224 74.00448 73.32864 116.10112-5.43744 66.51904-44.14464 101.84704-116.11136 105.9328z"  horiz-adv-x="1024" />

    
    <glyph glyph-name="shengguangbaojing" unicode="&#59196;" d="M512 416a32 32 0 0 1-32-32v-96a32 32 0 1 1 64 0v96a32 32 0 0 1-32 32zM534.72 214.72a33.024 33.024 0 0 1-45.44 0c-2.88-3.2-5.12-6.4-6.72-10.56-1.6-3.84-2.56-8-2.56-12.16s0.64-8.32 2.56-12.16c1.6-3.84 3.84-7.328 6.72-10.56 3.2-2.88 6.72-5.12 10.56-6.72a31.84 31.84 0 0 1 34.88 6.72 31.68 31.68 0 0 1 6.72 34.88c-1.6 4.16-3.84 7.36-6.72 10.56zM297.376 521.376a31.904 31.904 0 0 1 45.248 0 31.968 31.968 0 0 1 0 45.248l-32 32a31.968 31.968 0 1 1-45.248-45.248l32-32zM512 576a32 32 0 0 1 32 32V640a32 32 0 1 1-64 0v-32a32 32 0 0 1 32-32zM768 160h-64v192c0 105.888-86.112 192-192 192s-192-86.112-192-192v-192H256a32 32 0 1 1 0-64h160a32 32 0 1 1 0 64h-32v192c0 70.592 57.408 128 128 128s128-57.408 128-128v-192h-32a32 32 0 1 1 0-64h160a32 32 0 1 1 0 64zM704 512a31.904 31.904 0 0 1 22.624 9.376l32 32a31.968 31.968 0 1 1-45.248 45.248l-32-32A31.968 31.968 0 0 1 704 512z"  horiz-adv-x="1024" />

    
    <glyph glyph-name="dengpao1" unicode="&#59005;" d="M600.631 138.984a30.104 30.104 0 0 1-7.432-0.944l-174.761-45.062c-13.278-3.082-21.909-15.912-19.759-29.372 1.592-12.563 11.383-25.362 26.895-25.362a29.984 29.984 0 0 1 7.491 1.003l174.702 45.003c13.278 3.082 21.909 15.912 19.759 29.373-1.593 12.621-11.324 25.361-26.895 25.361z m-41.759-94.252a25.835 25.835 0 0 1-14.804-5.013c-11.619-7.962-22.767-12.386-33.088-12.976h-1.357a45.727 45.727 0 0 0-20.054 5.898c-0.59 0.295-2.89 1.828-4.424 2.831-4.247 2.831-5.426 3.598-6.842 3.775a28.2 28.2 0 0 1-12.976 3.185 31.26 31.26 0 0 1-28.901-20.172c-3.362-9.732-0.177-19.582 8.493-26.482 19.582-15.394 42.466-23.592 66.059-23.592 21.587 0 42.997 6.901 61.871 19.936a27.956 27.956 0 0 1 10.97 32.263c-3.775 12.15-13.802 20.289-24.949 20.289v0.058z m149.517 491.902A207.792 207.792 0 0 1 625.58 620.8a228.133 228.133 0 0 1-110.294 27.839c-33.383 0-66.943-7.078-97.142-20.466a222.66 222.66 0 0 1-81.394-61.222c-41.169-49.367-58.568-120.852-46.418-191.098 11.619-67.533 48.6-124.214 101.447-155.533a27.315 27.315 0 0 1 14.037-4.011 28.31 28.31 0 0 1 26.541 21.705c3.523 11.792-1.66 24.445-12.445 30.375-70.659 41.877-90.772 142.734-68.831 212.214 21.292 67.356 86.466 112.654 162.198 112.654 31.909 0 62.992-8.257 89.828-23.887 36.332-21.115 62.284-56.327 73.136-99.147a177.358 177.358 0 0 0-19.464-135.008c-9.614-15.748-22.059-30.316-34.091-44.354-7.727-8.965-15.748-18.284-23.003-27.898-12.386-16.515-16.161-34.209-19.877-51.255l-2.005-9.142-159.367-42.407c-13.333-3.19-21.933-16.142-19.7-29.667 1.651-12.445 11.324-25.126 26.718-25.126a29.837 29.837 0 0 1 7.668 1.062l124.332 33.088c4.6 1.239 9.142 2.359 13.448 3.421 34.032 8.375 60.868 15.04 63.994 64.171 1.121 17.34 15.984 33.619 29.137 47.834 3.362 3.716 6.547 7.137 9.437 10.617 15.807 18.461 35.448 43.587 47.893 73.254 26.306 62.638 21.646 132.884-12.976 197.763l0.002 0.058zM237.72 417.905c0 15.335-12.386 27.839-27.721 27.839h-54.027c-15.359 0-27.81-12.451-27.81-27.81 0-15.359 12.451-27.81 27.81-27.81h53.909c15.335 0 27.721 12.445 27.721 27.78h0.118z m628.974 27.839h-53.85c-15.359 0-27.81-12.451-27.81-27.81 0-15.359 12.451-27.81 27.81-27.81h53.85c15.359 0 27.81 12.451 27.81 27.81-0.001 15.359-12.451 27.81-27.81 27.81zM279.597 611.658c11.578-10.117 29.165-8.932 39.281 2.646 9.167 10.491 9.167 26.144 0 36.636l-38.102 38.22c-11.578 10.117-29.165 8.932-39.281-2.646-9.167-10.491-9.167-26.144 0-36.636l38.102-38.22z m465.596-387.506c-11.578 10.117-29.165 8.932-39.281-2.646-9.167-10.491-9.167-26.144 0-36.636l38.102-38.161c11.578-10.117 29.165-8.932 39.281 2.646 9.167 10.491 9.167 26.144 0 36.636l-38.102 38.161zM512.395 687.566c15.335 0 27.721 12.445 27.721 27.78v53.968c-0.707 15.326-13.704 27.178-29.03 26.471-14.337-0.661-25.81-12.134-26.471-26.471v-53.968c0-15.335 12.386-27.78 27.721-27.78h0.059zM318.878 224.152c-10.804 10.847-28.356 10.882-39.203 0.078l-0.078-0.078-38.102-38.161c-10.847-10.847-10.847-28.434 0-39.281 10.847-10.847 28.434-10.847 39.281 0l38.102 38.102c10.852 10.868 10.852 28.472 0 39.34z m387.034 387.506c10.804-10.847 28.356-10.882 39.203-0.078l0.078 0.078 38.102 38.161c10.847 10.847 10.847 28.434 0 39.281-10.847 10.847-28.434 10.847-39.281 0l-38.102-38.102c-10.852-10.869-10.852-28.472 0-39.34z"  horiz-adv-x="1024" />

    
    <glyph glyph-name="lingdang" unicode="&#59047;" d="M762.88 309.76l-1.024 1.024c-1.536 1.536-2.56 4.096-2.56 6.144v41.984h-33.792v-41.984c0-10.752 4.096-21.504 11.776-29.184l64-84.992 1.024-1.024c1.536-1.536 2.56-4.096 2.56-6.144v-41.984c0-5.12-4.096-8.704-8.704-8.704h-567.808c-5.12 0-8.704 4.096-8.704 8.704v41.984c0 2.56 1.024 4.608 2.56 6.144l1.024 1.024 64 84.992c7.68 8.192 11.776 18.432 11.776 29.184v161.28c0 62.976 20.992 120.832 59.904 163.328 18.944 20.992 41.472 37.376 67.072 48.64 26.624 11.776 55.808 17.92 86.528 17.92s59.904-6.144 86.528-17.92c25.6-11.264 48.128-27.648 67.072-48.64 38.4-42.496 59.904-100.352 59.904-163.328v-39.936h33.792v39.936c0 71.168-24.064 137.216-68.608 185.856a233.3696 233.3696 0 0 1-98.304 65.024c-2.048 19.456-11.264 37.888-26.112 51.2-14.848 13.824-34.304 20.992-54.784 20.992s-39.936-7.68-54.784-20.992c-14.848-13.312-24.064-31.744-26.112-51.2-37.376-12.8-71.168-34.816-98.304-65.024-44.032-48.64-68.608-114.688-68.608-185.856V316.928c0-2.56-1.024-4.608-2.56-6.144l-1.024-1.024-64-84.992c-7.68-8.192-11.776-18.432-11.776-29.184v-41.984c0-23.552 19.456-43.008 43.008-43.008h567.808c23.552 0 43.008 19.456 43.008 43.008v41.984c0 10.752-4.096 21.504-11.776 29.184L762.88 309.76z m-250.88 458.24c19.456 0 36.352-11.776 43.52-29.184-14.336 2.56-28.672 3.584-43.52 3.584s-29.184-1.536-43.52-3.584c7.168 17.408 24.064 29.184 43.52 29.184zM600.064 97.28h-176.128c-7.168 0-13.824-3.072-18.944-8.192s-7.168-12.288-6.656-19.456c2.56-28.16 15.872-54.272 36.352-73.216 20.992-19.456 48.64-29.696 76.8-29.696s55.808 10.752 76.8 29.696c20.992 18.944 33.792 45.056 36.352 73.216 0.512 7.168-2.048 14.336-6.656 19.456s-10.752 8.192-17.92 8.192z m-34.304-76.288c-14.848-13.312-33.792-20.992-53.76-20.992s-39.424 7.168-53.76 20.992c-12.288 11.264-20.48 26.112-24.064 41.984h156.16c-3.584-15.872-12.288-30.72-24.576-41.984zM936.96 559.616c-6.656 9.728-20.48 12.288-30.208 5.12-9.728-6.656-12.288-20.48-5.12-30.208 42.496-60.416 48.64-138.752 16.384-205.312l-1.024-2.56c-5.12-9.728-1.536-21.504 7.168-27.648l2.56-1.536c10.752-5.12 23.552-1.024 29.184 9.728l1.536 2.56c38.912 80.896 31.232 176.64-20.48 249.856zM826.368 487.936c-10.752-5.632-14.336-18.944-8.704-29.696 14.336-25.6 16.384-56.32 5.632-83.456-3.584-9.728 0-19.968 8.192-25.6 1.536-1.024 3.072-1.536 4.608-2.048 11.264-4.096 23.552 1.536 28.16 12.288 14.848 39.424 11.776 82.944-8.192 119.808-5.632 10.24-18.944 14.336-29.696 8.704zM127.488 572.928c-9.728 6.656-23.552 4.608-30.208-5.12-51.712-73.216-59.392-168.96-19.968-248.832l1.536-2.56c5.12-10.752 18.432-14.848 29.184-9.728l2.56 1.536c8.704 6.144 12.288 17.92 7.168 27.648l-1.024 2.56c-32.256 66.048-26.112 144.896 16.384 205.312 6.656 8.704 4.096 22.016-5.632 29.184zM198.144 354.816c1.536 0.512 3.072 1.536 4.608 2.048 8.192 5.632 11.776 15.872 8.192 25.6-10.24 27.136-8.192 57.856 5.632 83.456 5.632 10.752 2.048 23.552-8.704 29.696-10.752 5.632-23.552 2.048-29.696-8.704-20.48-36.864-23.552-80.896-8.192-119.808 4.608-11.264 16.896-16.896 28.16-12.288z"  horiz-adv-x="1024" />

    
    <glyph glyph-name="shanchu" unicode="&#58939;" d="M706.56 527.36v-404.48c5.12-20.48-10.24-35.84-30.72-40.96H358.4c-20.48 0-35.84 15.36-40.96 30.72V527.36H245.76v-445.44c-5.12-40.96 20.48-76.8 61.44-81.92h399.36c40.96 0 76.8 30.72 76.8 76.8V527.36h-76.8zM399.36 486.4v-322.56h76.8V486.4H399.36zM665.6 645.12V727.04c0 30.72 0 40.96-40.96 40.96H399.36c-40.96 0-40.96-15.36-40.96-40.96v-81.92H204.8v-81.92h614.4V645.12h-153.6z m-76.8 0h-153.6v40.96h153.6v-40.96zM435.2 686.08c0 15.36 0 0 0 0zM588.8 686.08s0 15.36 0 0zM552.96 486.4v-322.56h76.8V486.4h-76.8z"  horiz-adv-x="1024" />

    
    <glyph glyph-name="portal-icon-lianjie" unicode="&#59138;" d="M513.92 201.152l-158.848-158.976a129.856 129.856 0 0 0-92.352-38.272 130.304 130.304 0 0 0-130.624 130.752c0 34.88 13.568 67.776 38.208 92.224l193.92 193.92-1.024 1.024a33.472 33.472 0 0 1 6.336 18.688 33.92 33.92 0 0 1-33.792 33.984 32.256 32.256 0 0 1-18.688-6.528l-1.024 1.024-193.92-193.856A197.504 197.504 0 0 1 64 134.848c0-53.248 20.608-103.232 58.112-140.608 37.44-37.632 87.296-58.24 140.544-58.24a197.12 197.12 0 0 1 140.608 58.112l158.784 158.72a34.112 34.112 0 0 1 0 48.256 35.264 35.264 0 0 1-48.128 0.064zM901.824 773.888C864.384 811.392 814.528 832 761.344 832s-102.976-20.608-140.544-58.112L462.08 615.04a34.176 34.176 0 0 1 0-48.192c12.864-12.8 35.392-12.8 48.128 0l158.656 158.848c24.704 24.64 57.472 38.208 92.416 38.208s67.84-13.568 92.416-38.208a130.88 130.88 0 0 0 0-184.768L665.408 352.64l-0.064-0.064-5.504-5.568 1.152-1.088a33.28 33.28 0 0 1-5.44-17.344c0-18.688 15.104-33.92 33.792-33.92a32.384 32.384 0 0 1 17.408 5.632l1.216-1.28 193.792 193.92a196.736 196.736 0 0 1 58.176 140.224 197.44 197.44 0 0 1-58.112 140.736zM324.864 196.992a38.4 38.4 0 0 1 54.272-0.064l320 319.872a38.464 38.464 0 0 1-54.272 54.336l-320-319.808a38.4 38.4 0 0 1 0-54.336z"  horiz-adv-x="1024" />

    
    <glyph glyph-name="erweima" unicode="&#58882;" d="M122.548907 59.10528v136.526507H25.1392v-168.997547c0-71.744853 58.149547-129.88416 129.88416-129.88416H317.371733v97.40288H187.4944c-35.87072 0.003413-64.945493 29.088427-64.945493 64.95232z m0 649.40032c0 35.87072 29.078187 64.94208 64.94208 64.94208h129.88416V870.8608H155.02336C83.288747 870.8608 25.1392 812.714667 25.1392 740.97664v-155.702613h97.409707V708.5056z m779.29472-649.40032c0-35.867307-29.078187-64.935253-64.948907-64.935253h-129.870507v-97.416534h162.34496c71.734613 0 129.890987 58.15296 129.890987 129.88416v168.997547h-97.41312v-136.52992h-0.003413zM869.36576 870.8608h-162.34496v-97.409707h129.870507c35.874133 0 64.948907-29.07136 64.948906-64.94208v-123.234986h97.41312V740.97664c0.003413 71.738027-58.15296 129.88416-129.887573 129.88416z m97.419947-438.35392H57.61024c-17.93024 0-32.47104-14.53056-32.47104-32.467627v-32.47104c0-17.933653 14.537387-32.467627 32.47104-32.467626h909.175467c17.926827 0 32.47104 14.533973 32.47104 32.467626v32.47104c0 17.937067-14.544213 32.467627-32.47104 32.467627z"  horiz-adv-x="1024" />

    
    <glyph glyph-name="liuliang" unicode="&#59707;" d="M73.142857 356.498286V820.809143a36.571429 36.571429 0 1 1-73.142857 0v-766.464c0-60.708571 49.078857-109.568 110.006857-109.568h841.947429a36.571429 36.571429 0 0 1 0 73.142857H110.006857A36.425143 36.425143 0 0 0 73.142857 54.345143v204.068571L327.606857 485.668571a37.888 37.888 0 0 0 52.809143-2.048l192.365714-206.336a108.836571 108.836571 0 0 1 154.550857-4.169142l240.274286 227.986285a36.571429 36.571429 0 1 1-50.322286 53.101715L676.937143 326.217143a35.693714 35.693714 0 0 0-50.614857 0.950857l-192.365715 206.336a111.030857 111.030857 0 0 1-155.062857 6.729143L73.216 356.498286z"  horiz-adv-x="1024" />

    
    <glyph glyph-name="wodeshebei" unicode="&#58880;" d="M209.455 709.818h605.091c37.236 0 69.818-32.582 69.818-69.818v-418.909c0-37.236-32.582-69.818-69.818-69.818h-605.091c-37.236 0-69.818 32.582-69.818 69.818v418.909c0 37.236 32.582 69.818 69.818 69.818zM502.691 281.6c4.655 4.655 13.964 4.655 13.964 0l237.382-237.382c18.618-18.618 13.964-32.582-13.964-32.582h-465.455c-27.927 0-32.582 13.964-13.964 32.582l242.036 237.382z"  horiz-adv-x="1024" />

    
    <glyph glyph-name="xiaoxi" unicode="&#58937;" d="M512 36.864c-29.696 0-58.368 2.56-86.528 7.168l-202.24-122.88v204.288c-105.472 74.24-173.056 187.392-173.056 314.88 0 223.232 206.848 403.968 461.824 403.968s461.824-180.736 461.824-403.968c0-222.72-206.848-403.456-461.824-403.456z m0 750.08c-223.232 0-403.968-155.136-403.968-346.112 0-117.248 68.096-220.672 172.544-283.648l-2.048-133.632 135.68 81.408c31.232-6.656 64-10.752 97.28-10.752 223.232 0 403.968 155.136 403.968 346.112 0.512 191.488-180.224 346.624-403.456 346.624z m230.912-403.968c-31.744 0-57.856 25.6-57.856 57.856 0 31.744 25.6 57.856 57.856 57.856 31.744 0 57.856-25.6 57.856-57.856s-26.112-57.856-57.856-57.856z m-230.912 0c-31.744 0-57.856 25.6-57.856 57.856 0 31.744 26.112 57.856 57.856 57.856 31.744 0 57.856-25.6 57.856-57.856s-26.112-57.856-57.856-57.856z m-230.912 0c-31.744 0-57.856 25.6-57.856 57.856 0 31.744 26.112 57.856 57.856 57.856 31.744 0 57.856-25.6 57.856-57.856s-26.112-57.856-57.856-57.856z"  horiz-adv-x="1024" />

    
    <glyph glyph-name="shujutongji" unicode="&#58908;" d="M898.832 440.002c-24.763 171.074-159.515 305.624-330.83 330.348V828.13c202.417-25.3 361.288-185.818 386.779-388.128h-55.949zM904 384.003h56v-56h-3.87c-27.613-220.93-215.716-391.998-444.128-391.998C264.58-63.994 64 136.58 64 384.003S264.58 831.994 512.003 831.994V384.002H904z m-447.997-56V770.35C266.271 742.972 120 581.312 120 384.003c0-216.495 175.503-391.998 392.003-391.998 197.309 0 358.969 146.271 386.347 335.998H456.003z"  horiz-adv-x="1024" />

    
    <glyph glyph-name="paifengshan" unicode="&#59043;" d="M893.248 251.648c0-15.872-5.632-32.384-16.832-49.152-11.456-17.152-28.416-33.92-49.152-48.64-20.8-14.656-44.8-26.944-69.568-35.392-24.96-8.576-49.984-13.056-72.512-13.056-44.736 0-99.776 18.816-143.488 49.088-42.56 29.376-67.904 64.96-67.904 94.976 0 11.136 3.328 21.632 10.24 32.256l1.984 2.944c5.056-0.064 13.504-0.64 21.76-1.216 19.776-1.344 49.6-3.456 94.464-3.456 48.64 0 94.848 14.272 135.744 26.752 35.136 10.752 68.288 20.928 93.632 19.072 16.128-1.216 35.136-7.04 53.12-41.28 5.76-10.944 8.512-21.696 8.512-32.896m35.136 0c0 16.256-3.904 32.896-12.48 49.28-66.624 126.784-186.24 14.272-313.6 14.272-127.36 0-127.296 17.152-147.648-14.272a92.8 92.8 0 0 1-15.936-51.392c0-91.52 139.328-179.264 246.592-179.264 108.672 0 243.072 85.952 243.072 181.376zM685.248 60.608c-111.872 0-256.128 91.648-256.128 188.864 0 19.84 5.888 38.784 17.472 56.64 11.136 17.216 18.752 23.232 39.424 23.232 6.336 0 14.4-0.576 24.896-1.28 19.072-1.344 48-3.328 91.328-3.328 41.856 0 82.944 12.544 122.624 24.768 35.712 10.944 69.376 21.312 100.416 21.312 44.096 0 75.648-20.8 99.072-65.472 9.024-17.152 13.632-35.2 13.632-53.696 0-102.912-139.008-191.04-252.736-191.04z m-199.296 249.6c-12.48 0-14.848-1.472-23.296-14.592a83.52 83.52 0 0 1-14.4-46.144c0-85.76 135.744-169.6 236.992-169.6 102.912 0 233.472 80.896 233.472 171.776 0 15.36-3.84 30.464-11.392 44.736-20.032 38.208-45.376 55.168-82.048 55.168-28.16 0-60.544-9.856-94.784-20.416-41.088-12.544-83.52-25.6-128.256-25.6-44.032 0-73.344 2.048-92.736 3.456-9.92 0.64-17.536 1.216-23.552 1.216z m199.296-214.4c-46.656 0-103.68 19.52-148.992 50.816-45.12 31.104-72 69.632-72 102.848 0 12.992 3.84 25.28 11.776 37.44l2.88 4.48 7.296 2.88c5.184-0.064 13.824-0.704 22.336-1.28 20.416-1.408 49.92-3.456 93.76-3.456 46.848 0 92.096 13.824 132.032 26.048 37.312 11.456 72 21.888 97.984 19.712 17.664-1.344 40.64-7.744 60.928-46.336 6.464-12.288 9.6-24.576 9.6-37.44 0-17.792-6.272-36.096-18.432-54.464a204.032 204.032 0 0 0-51.584-51.136 284.864 284.864 0 0 0-72-36.608 240.128 240.128 0 0 0-75.584-13.504zM491.2 274.944a47.872 47.872 0 0 1-7.744-25.408c0-26.56 24.448-59.968 63.744-87.104 42.24-29.184 95.168-47.296 138.048-47.296 21.504 0 45.504 4.288 69.376 12.48a271.872 271.872 0 0 1 67.136 34.112c19.776 14.08 35.968 30.016 46.656 46.144 10.112 15.104 15.168 29.888 15.168 43.84a59.968 59.968 0 0 1-7.36 28.48c-15.808 29.952-31.104 35.072-45.312 36.096-23.04 1.536-55.552-8.128-89.792-18.56-42.432-12.992-89.216-27.328-138.88-27.328-44.48 0-74.432 2.112-94.208 3.52l-16.832 1.024zM553.152 542.4c0-53.056-14.144-98.112-37.824-120.576a56.896 56.896 0 0 0-44.48-15.872 168.256 168.256 0 0 0-3.52 0.192c-2.496 4.416-6.208 12.032-9.856 19.456-8.64 17.792-21.76 44.672-44.224 83.584-24.256 42.048-59.776 75.072-91.008 104.192-37.184 34.624-69.248 64.448-69.248 95.424 0 12.672 4.928 26.688 15.104 42.688 7.616 12.032 17.088 20.672 28.864 26.304 11.456 5.504 25.152 8.128 40.64 7.808 31.552-0.64 68.224-13.184 103.232-35.264 35.264-22.272 64.448-51.392 82.112-81.984 19.2-33.28 30.208-79.168 30.208-125.952m35.072 0c0 51.008-11.968 103.808-34.88 143.488C489.728 796.16 306.432 877.952 238.4 770.304c-14.464-22.848-20.544-43.008-20.544-61.504 0-79.616 113.28-127.68 164.992-217.216 63.68-110.272 48.832-118.784 86.208-120.768 81.408-4.288 119.168 80.832 119.168 171.584zM474.88 361.088l-6.4 0.128c-30.208 1.6-34.24 9.856-51.2 44.736-8.384 17.28-21.12 43.328-42.752 80.832-20.992 36.288-52.416 65.536-82.816 93.824-42.944 40-83.456 77.76-83.456 128.192 0 21.44 7.168 43.2 22.016 66.624C252.992 811.392 289.28 830.4 335.168 830.4c81.792 0 181.312-61.376 226.56-139.712 22.976-39.808 36.16-93.824 36.16-148.288 0-48-10.304-92.032-28.992-123.904-22.016-37.568-54.528-57.408-94.016-57.408zM335.168 811.2c-27.2 0-64.64-8-88.64-46.016-12.8-20.224-19.072-38.656-19.072-56.384 0-42.112 35.84-75.456 77.376-114.112 31.424-29.312 63.936-59.52 86.336-98.304 21.952-38.08 34.816-64.512 43.392-81.984 16.064-32.96 16.064-32.96 34.944-33.984l5.376-0.128c32.704 0 58.752 16.128 77.376 47.936 17.024 28.992 26.304 69.504 26.304 114.176 0 51.2-12.16 101.76-33.536 138.688C503.68 752.832 409.472 811.2 335.168 811.2z m139.648-414.976l-9.728 0.384-6.08 4.8a379.136 379.136 0 0 0-9.024 17.664l-1.152 2.304a1203.2 1203.2 0 0 1-43.904 83.008c-23.552 40.768-58.368 73.216-89.152 101.888-38.912 36.224-72.384 67.392-72.384 102.528 0 14.592 5.376 30.208 16.576 47.872 8.576 13.632 19.328 23.36 32.832 29.824 12.16 5.824 26.432 8.768 42.304 8.768h2.688c33.28-0.64 71.68-13.696 108.16-36.736 36.608-23.168 66.88-53.44 85.312-85.376 19.968-34.688 31.488-82.304 31.488-130.752 0-55.616-15.296-103.296-40.896-127.552-12.928-12.352-28.8-18.624-47.04-18.624z m-1.6 19.264h1.6a46.464 46.464 0 0 1 33.856 13.312c21.824 20.672 34.816 63.168 34.816 113.6 0 45.184-10.56 89.344-28.864 121.152-16.896 29.248-44.928 57.216-78.912 78.656-33.536 21.248-68.48 33.216-98.304 33.792h-2.304c-12.992 0-24.448-2.304-34.048-6.848a59.136 59.136 0 0 1-24.832-22.784c-9.152-14.464-13.632-26.752-13.632-37.568 0-26.752 30.656-55.296 66.112-88.32 31.936-29.76 67.904-63.232 92.864-106.496 22.976-39.872 36.48-67.648 44.544-84.16l1.088-2.304 6.016-12.032z m-89.088-87.744a440.96 440.96 0 0 0-11.904-18.304c-11.072-16.448-27.84-41.216-50.24-80.064-24.256-42.048-35.136-89.28-44.736-130.944-8.256-35.84-16-69.632-30.272-90.56-9.152-13.44-23.68-26.944-62.272-25.344-26.24 1.088-46.4 13.632-61.632 38.592-15.424 25.344-23.936 61.056-23.936 100.736 0 44.928 11.008 89.792 30.208 123.072 17.984 31.04 49.856 62.144 87.488 85.12 37.312 22.848 76.608 35.456 107.776 34.688 27.776-0.768 46.784-11.84 57.984-33.856l1.536-3.136m36.288-0.64c0 5.632-2.24 11.392-6.528 19.712C356.16 460.352 162.624 372.736 98.88 262.4 75.968 222.656 64 171.456 64 121.792c0-88.192 37.824-171.2 119.296-174.464 143.04-5.76 105.408 154.112 169.152 264.448 47.744 82.752 67.968 98.624 67.968 115.328zM190.656-62.4l-7.744 0.192C88.064-58.432 54.4 39.296 54.4 121.792c0 52.544 13.184 105.536 36.16 145.344 45.312 78.464 148.992 142.336 231.104 142.336 46.592 0 81.408-20.16 100.864-58.304 4.672-9.152 7.552-16.32 7.552-24.064 0-12.032-6.464-21.632-20.672-42.624-10.688-15.936-26.944-39.936-48.64-77.504-20.928-36.224-30.592-78.144-39.872-118.656-17.856-77.44-34.688-150.72-130.24-150.72z m131.008 452.736c-74.688 0-172.928-60.8-214.464-132.736-21.376-36.928-33.6-86.464-33.6-135.744 0-73.984 28.864-161.6 110.08-164.864l6.976-0.128c80.256 0 94.016 60.032 111.488 135.872 9.6 41.856 19.584 85.184 41.92 123.968 22.016 38.144 38.464 62.528 49.344 78.592 11.584 17.216 17.344 25.792 17.344 31.936 0 3.392-1.536 7.616-5.44 15.296-16.064 31.68-44.224 47.808-83.648 47.808z m-131.008-417.6l-6.336 0.192c-29.312 1.216-52.672 15.68-69.44 43.136-16.32 26.816-25.344 64.384-25.344 105.728 0 46.656 11.456 93.184 31.488 127.872 18.752 32.448 51.84 64.768 90.816 88.576 37.44 22.912 77.504 36.096 109.888 36.096h3.072c31.232-0.832 53.504-14.016 66.304-39.04l3.456-7.04-2.112-5.312c-2.624-4.48-7.488-11.776-12.224-18.88-11.136-16.448-27.712-41.088-49.92-79.488-23.68-40.96-34.304-87.296-43.712-128.256-8.512-36.992-16.448-71.488-31.68-93.888-9.344-13.824-25.152-29.696-64.256-29.696z m131.072 382.4c-28.928 0-65.344-12.16-99.904-33.28-36.288-22.208-67.008-52.032-84.16-81.792-18.368-31.808-28.928-74.944-28.928-118.272 0-37.952 8-71.936 22.528-95.744 13.568-22.272 30.656-33.088 53.824-33.984l5.568-0.064c29.824 0 40.896 10.176 48.384 21.248 13.248 19.392 20.8 52.16 28.736 86.912 9.792 42.624 20.8 90.496 45.888 134.016 22.528 39.04 39.36 63.936 50.496 80.448 3.264 4.8 6.528 9.6 9.024 13.568-9.728 17.728-25.28 26.304-48.832 26.944h-2.624zM823.616 727.808H658.112a28.608 28.608 0 0 0 0 57.216h165.504a28.608 28.608 0 1 0 0-57.216zM894.016 613.312H658.112a28.608 28.608 0 0 0 0 57.216h235.904a28.608 28.608 0 1 0 0-57.216zM931.392 494.592h-273.28a28.608 28.608 0 0 0 0 57.216h273.28a28.608 28.608 0 1 0 0-57.216z"  horiz-adv-x="1024" />

    
    <glyph glyph-name="tanhao" unicode="&#58955;" d="M512-78.486c-254.2 0-460.738 206.538-460.738 460.738S257.8 842.99 512 842.99s460.738-206.538 460.738-460.738S766.2-78.486 512-78.486z m0 889.7c-238.313 0-428.963-190.65-428.963-428.962S273.687-46.711 512-46.711s428.963 190.65 428.963 428.963S750.313 811.215 512 811.215z m0-661.979z m-42.367 0c0-23.398 18.969-42.367 42.367-42.367s42.367 18.969 42.367 42.367-18.969 42.367-42.367 42.367-42.367-18.969-42.367-42.367m0 492.513c0 10.592 5.296 15.888 15.888 15.888h47.662c10.592 0 15.888-5.296 15.888-15.888l-21.183-344.23c0-10.591-10.592-15.887-15.888-15.887h-5.296c-10.592 0-15.887 5.296-15.887 15.888l-21.184 344.229z"  horiz-adv-x="1024" />

    
    <glyph glyph-name="zhiding" unicode="&#59226;" d="M512 824.32c-243.2 0-440.32-197.12-440.32-440.32s197.12-440.32 440.32-440.32 440.32 197.12 440.32 440.32-197.12 440.32-440.32 440.32z m0-829.44c-214.528 0-389.12 174.592-389.12 389.12s174.592 389.12 389.12 389.12 389.12-174.592 389.12-389.12-174.592-389.12-389.12-389.12zM577.024 171.52H446.976c-12.8 0-21.504-8.704-21.504-21.504s8.704-21.504 21.504-21.504h130.048c12.8 0 21.504 8.704 21.504 21.504s-8.704 21.504-21.504 21.504zM512 640l-219.136-273.408H424.96v-130.048c0-12.8 8.704-21.504 21.504-21.504h130.048c12.8 0 21.504 8.704 21.504 21.504v130.048h132.096L512 640z"  horiz-adv-x="1024" />

    
    <glyph glyph-name="shuiweiji" unicode="&#58927;" d="M853.333333 73.984V170.666667h-128v85.333333h128v128h-128v85.333333h128V597.333333h-128V682.666667h128V768h85.333334v-749.781333c14.037333-12.629333 25.173333-24.448 32.768-33.578667l-65.536-54.613333a309.248 309.248 0 0 1-38.314667 36.693333c-26.453333 21.12-51.797333 33.28-71.125333 33.28-13.226667 0-19.157333-4.266667-38.357334-27.306667-34.133333-40.96-57.813333-58.026667-103.893333-58.026666s-69.717333 17.066667-103.893333 58.026666c-19.2 23.04-25.130667 27.306667-38.314667 27.306667-13.226667 0-19.157333-4.266667-38.314667-27.306667-34.133333-40.96-57.856-58.026667-103.893333-58.026666-46.08 0-69.76 17.066667-103.893333 58.026666-19.2 23.04-25.173333 27.306667-38.357334 27.306667a98.133333 98.133333 0 0 1-57.941333-19.498667c-10.496-7.509333-17.493333-14.762667-20.224-18.432l-4.608-5.205333c-11.946667-11.477333-22.101333-21.973333-28.032-28.416l-62.805333 57.770667a823.253333 823.253333 0 0 0 29.525333 30.08c7.765333 9.685333 19.882667 21.717333 36.437333 33.536 30.72 22.058667 66.858667 35.498667 107.648 35.498666 46.08 0 69.76-17.066667 103.893334-58.026666 19.2-23.04 25.173333-27.306667 38.357333-27.306667 13.184 0 19.114667 4.266667 38.314667 27.306667C442.24 68.266667 465.92 85.333333 512 85.333333s69.76-17.066667 103.893333-58.026666c19.2-23.04 25.173333-27.306667 38.314667-27.306667 13.226667 0 19.157333 4.266667 38.357333 27.306667 34.133333 40.96 57.813333 58.026667 103.893334 58.026666 19.2 0 38.186667-4.010667 56.874666-11.349333zM341.333333 213.333333c-117.333333 0-213.333333 98.048-213.333333 218.709334C128 575.36 326.101333 810.666667 341.333333 810.666667c15.232 0 213.333333-235.306667 213.333334-378.624C554.666667 311.381333 458.666667 213.333333 341.333333 213.333333z"  horiz-adv-x="1024" />

    
    <glyph glyph-name="menjinzhamen" unicode="&#58971;" d="M128.6144 896v-1024h766.7712V896H128.6144z m288.768-968.192H181.5552v912.384H435.2l-208.5888-53.5552v-810.8032l190.7712-48.0256z m174.6944 360.0384h-56.32V487.1168h56.32v-199.2704z m250.368-360.0384H638.7712v912.384h203.6736v-912.384z"  horiz-adv-x="1024" />

    
    <glyph glyph-name="shuibeng" unicode="&#58945;" d="M473.80992-51.2c-58.740736 0-115.7376 11.50976-169.407488 34.210816-51.825664 21.919744-98.36544 53.296128-138.324992 93.25568s-71.335936 86.499328-93.256704 138.324992C50.11968 268.2624 38.60992 325.259264 38.60992 384s11.50976 115.736576 34.210816 169.407488c21.920768 51.826688 53.296128 98.366464 93.256704 138.324992 39.959552 39.959552 86.499328 71.335936 138.324992 93.256704C357.945344 807.635968 414.797824 819.144704 473.39008 819.2h512v-217.6H850.814976c38.202368-65.890304 58.194944-140.230656 58.194944-217.6 0-58.740736-11.50976-115.7376-34.210816-169.407488-21.919744-51.825664-53.296128-98.36544-93.25568-138.324992s-86.499328-71.335936-138.326016-93.25568C589.546496-39.69024 532.549632-51.2 473.80992-51.2z m0 819.2c-211.738624 0-384-172.2624-384-384s172.261376-384 384-384c211.7376 0 384 172.261376 384 384 0 82.78016-25.92768 161.615872-74.979328 227.984384L752.664576 652.8h181.525504V768M490.401792 660.366336c-174.112768 2.08896-216.572928-94.418944-216.572928-94.418944l100.59264-100.307968a127.28832 127.28832 0 0 1-27.736064-67.062784l-149.036032 1.712128c-1.994752-174.017536 94.513152-216.28928 94.513152-216.28928l102.018048 102.208512c17.763328-14.152704 39.420928-23.747584 63.260672-26.597376l-1.803264-151.980032c173.924352-1.993728 216.382464 94.41792 216.382464 94.41792l-101.638144 101.636096c14.913536 17.668096 24.983552 39.514112 28.403712 63.546368l151.78752-1.71008c1.993728 173.924352-94.606336 216.384512-94.606336 216.384512l-99.928064-100.021248a125.315072 125.315072 0 0 1-67.346432 29.729792l1.709056 148.752384zM550.912 383.094784c-0.474112-42.493952-35.304448-76.55936-77.797376-76.085248-42.492928 0.47104-76.557312 35.301376-76.084224 77.795328 0.47104 42.492928 35.301376 76.556288 77.795328 76.086272 42.491904-0.472064 76.556288-35.304448 76.086272-77.796352zM424.2176 384.521216c-0.28672-28.38016 22.484992-51.623936 50.8672-51.910656 27.20256 1.352704 48.644096 23.658496 48.920576 50.896896 0.279552 27.234304-20.70528 49.973248-47.876096 51.878912-28.381184 0.290816-51.621888-22.484992-51.91168-50.865152z"  horiz-adv-x="1024" />

    
    <glyph glyph-name="star_off" unicode="&#58890;" d="M778.953-108.486c-5.824 0-11.649 0-17.473 0-12.078 5.165-24.71 9.324-36.137 15.662-68.017 37.713-135.793 75.858-203.513 114.1-5.749 3.248-10.049 3.281-15.783 0.017-41.79-23.779-83.415-47.893-125.802-70.57-37.707-20.173-72.529-45.972-113.843-59.207-5.825 0-11.649 0-17.474 0-2.106 0.722-4.169 1.635-6.327 2.141-36.148 8.471-59.877 42.643-54.136 79.345 13.728 87.768 27.767 175.487 42.067 263.163 1.039 6.374-0.522 10.172-4.668 14.438-22.548 23.199-44.861 46.625-67.275 69.952-37.656 39.192-75.43 78.27-112.95 117.59-19.548 20.487-25.203 45.062-17.14 71.815 7.775 25.796 25.809 42.091 52.208 48.257 9.726 2.273 19.746 3.293 29.641 4.825 72.789 11.27 145.558 22.661 218.396 33.6 8.433 1.267 12.487 5.157 15.906 12.621 34.574 75.475 69.58 150.751 104.311 226.155 7.144 15.509 17.38 28.115 32.743 35.732 7.427 3.682 15.642 5.773 23.501 8.582 5.824 0 11.649 0 17.473 0 32.838-6.657 50.042-28.932 63.045-58.254 31.821-71.75 65.563-142.646 98.334-213.978 2.8-6.094 6.052-9.34 13.213-10.42 77.942-11.763 155.771-24.276 233.737-35.868 24.407-3.629 45.68-11.389 59.877-32.893 19.15-29.003 15.030-65.588-10.621-92.316-59.364-61.857-118.839-123.608-178.034-185.631-2.863-2.999-5.431-8.464-4.835-12.262 13.424-85.528 26.714-171.083 41.337-256.409 8.405-49.040-21.255-79.448-49.692-87.115-3.389-0.917-6.723-2.044-10.085-3.071zM769.576-36.519c-0.196 4.233-0.058 7.072-0.496 9.818-13.58 84.839-26.979 169.711-40.981 254.483-4.517 27.341 2.399 50.117 21.661 70.023 58.491 60.44 116.635 121.217 174.891 181.884 2.516 2.622 4.8 5.465 8.113 9.256-82.095 12.756-162.097 25.888-242.342 37.317-33.131 4.716-55.631 19.785-69.537 50.781-33.181 73.968-67.796 147.292-101.851 220.865-1.402 3.026-2.999 5.959-5.178 10.267-2.298-4.748-3.88-7.888-5.355-11.076-34.847-75.344-69.726-150.674-104.497-226.052-10.475-22.708-27.475-37.986-52.151-42.059-63.103-10.414-126.378-19.778-189.582-29.589-21.837-3.39-43.663-6.852-67.471-10.593 3.943-4.253 6.459-7.056 9.064-9.768 58.497-60.884 116.931-121.828 175.551-182.595 17.372-18.006 25.016-39.276 21.167-63.8-11.619-74.031-23.846-147.967-35.781-221.948-2.45-15.187-4.661-30.412-7.287-47.61 5.003 2.621 8.118 4.153 11.143 5.85 68.772 38.569 137.648 76.958 206.24 115.844 26.319 14.921 51.697 14.98 78.037 0.038 68.302-38.744 136.892-76.981 205.378-115.402 3.303-1.855 6.703-3.54 11.263-5.932z"  horiz-adv-x="1024" />

    
    <glyph glyph-name="wode" unicode="&#58911;" d="M950.990653-90.337546c-24.43622 175.753535-148.842318 319.34086-314.057116 371.572046 109.226117 51.771187 184.793524 163.076051 184.793524 291.882144C821.727061 751.433926 677.220988 896 498.842455 896 320.492673 896 175.956599 751.433926 175.956599 573.116644c0-128.959843 75.659908-240.293457 184.977275-291.882144C196.606574 229.002064 72.625476 86.238488 47.610506-88.382548a27.719966 27.719966 0 0 1-2.199997-10.904987c0-15.853731 12.859984-28.712465 28.802465-28.712465 15.853731 0 28.741215 12.889984 28.741215 28.712465v1.191248C130.047905 96.563476 297.095202 246.322043 499.144955 246.322043c201.351004 0 367.847051-148.689818 395.918267-342.310832-0.1225-1.037499-0.24375-2.107497-0.24375-3.298746 0-15.853731 12.889984-28.712465 28.866215-28.712465 15.851231 0 28.649965 12.889984 28.649965 28.712465-0.00125 3.207496-0.458749 6.108743-1.344999 8.949989zM498.842455 306.49447c-147.31732 0-266.652174 119.397354-266.652174 266.622174 0 147.40607 119.336104 266.742174 266.652174 266.742175 147.40732 0 266.743424-119.366104 266.743425-266.742175 0.00125-147.22482-119.334854-266.622175-266.743425-266.622174z m0 0"  horiz-adv-x="1024" />

    
    <glyph glyph-name="-" unicode="&#59130;" d="M280.064 201.984h-20.48v-40.448h20.736c7.936 0 13.312 2.048 16.64 6.144 3.072 4.096 4.864 8.704 4.864 14.08 0 6.144-1.792 11.008-5.376 14.848-3.84 3.584-9.216 5.376-16.384 5.376zM798.976 482.304c-1.536 51.456-19.712 99.328-49.92 138.752l85.248 83.456 0.768 0.768c9.728 10.752 6.912 30.208-6.912 44.032-13.824 14.08-33.024 17.408-44.032 7.68l-86.784-84.992c-41.472 31.232-92.928 51.712-149.504 56.576v120.32c-0.768 14.336-16.64 25.856-36.352 25.856-19.712 0-35.584-11.52-36.352-25.856h-0.256v-122.368c-48.64-7.424-93.184-26.368-129.792-53.76l-78.592 84.224-0.768 0.768c-10.496 9.984-29.952 7.68-44.288-5.888-14.336-13.312-18.176-32.768-8.96-43.776l80.64-86.272c-27.648-36.096-45.568-78.848-49.664-125.44H134.4c-14.336-0.768-25.856-16.64-25.856-36.352 0-19.712 11.52-35.584 25.856-36.352v-0.256H248.32c3.84-16.896 9.472-33.024 16.64-48.64-94.464-18.432-165.888-101.632-165.888-201.728 0-113.152 91.648-205.056 204.544-205.568l391.936 0.256c144.384 4.864 260.096 123.648 260.096 269.312-0.256 109.056-64.256 202.496-156.672 245.248zM520.704 679.68c118.272 0 215.552-78.592 229.12-179.968-20.48 5.12-41.984 7.68-64 7.68-115.2 0-213.504-72.448-252.16-174.08-32.256 26.112-72.448 42.752-116.48 45.568-17.408 28.672-27.392 61.696-27.392 96.512 0.256 112.64 103.424 204.288 230.912 204.288z m-191.232-518.912c-2.56-7.168-6.4-12.8-11.264-16.896s-9.472-6.912-14.08-8.192c-4.608-1.28-11.52-2.048-21.248-2.048h-22.272V76.8H228.352v152.832H281.6c12.032 0 20.992-1.536 27.392-4.352s12.032-7.936 16.896-15.36c4.864-7.424 7.424-16.384 7.424-27.136 0-7.424-1.28-14.848-3.84-22.016z m169.216-83.712h-32v124.672L432.64 77.056h-21.76l-33.28 124.672v-124.672h-26.624v152.832h49.408l23.808-91.392 25.088 91.392h49.664v-152.832z m114.176-3.072h-32v119.808c-3.84-3.328-9.216-6.4-16.128-9.216-6.912-2.816-13.056-4.352-18.688-5.12v27.136c17.92 5.12 33.536 12.8 46.592 22.784h20.224v-155.392z m141.312 18.176c-9.472-13.824-23.296-20.736-41.216-20.736-35.84 0-53.76 25.344-53.76 76.288 0 26.368 4.864 46.592 14.592 60.416 9.728 13.824 23.808 20.736 41.984 20.736 35.072 0 52.48-25.856 52.48-77.568 0-25.6-4.608-45.312-14.08-59.136zM714.496 204.544c-15.36 0-23.04-18.688-23.04-56.064 0-35.072 7.424-52.736 22.528-52.736 14.848 0 22.016 18.176 22.016 54.272 0 36.352-7.168 54.528-21.504 54.528z"  horiz-adv-x="1024" />

    
    <glyph glyph-name="xiala" unicode="&#58920;" d="M919.8 514.9L555.2 116.2a57.377 57.377 0 0 0-43.1-19.5c-16.5 0-32.2 7.1-43.1 19.5L104.4 514.9c-17.8 18.8-23.3 46.2-14.1 70.4s31.4 41.1 57.2 43.4h728.9c25.9-2.2 48.2-19 57.4-43.3 9.3-24.3 3.8-51.6-14-70.5z"  horiz-adv-x="1024" />

    


  </font>
</defs>
</svg>
